<svg width="4898" height="1633" viewBox="0 0 4898 1633" fill="none" xmlns="http://www.w3.org/2000/svg">
<g clip-path="url(#clip0_2349_94)">
<g clip-path="url(#clip1_2349_94)">
<rect width="4897" height="1633" transform="translate(0 -0.328125)" fill="#F5F5F5"/>
<rect y="-0.328125" width="336.932" height="1633" fill="#020202" fill-opacity="0.02"/>
<rect x="413.508" y="-0.328125" width="336.932" height="1633" fill="#020202" fill-opacity="0.02"/>
<rect x="830.844" y="-0.328125" width="336.932" height="1633" fill="#020202" fill-opacity="0.02"/>
<rect x="1244.35" y="-0.328125" width="336.932" height="1633" fill="#020202" fill-opacity="0.02"/>
<rect x="1657.86" y="-0.328125" width="336.932" height="1633" fill="#020202" fill-opacity="0.02"/>
<rect x="2071.37" y="-0.328125" width="336.932" height="1633" fill="#020202" fill-opacity="0.02"/>
<rect x="2488.7" y="-0.328125" width="336.932" height="1633" fill="#020202" fill-opacity="0.02"/>
<rect x="2902.21" y="-0.328125" width="336.932" height="1633" fill="#020202" fill-opacity="0.02"/>
<rect x="3315.72" y="-0.328125" width="336.932" height="1633" fill="#020202" fill-opacity="0.02"/>
<rect x="3729.22" y="-0.328125" width="336.932" height="1633" fill="#020202" fill-opacity="0.02"/>
<rect x="4146.56" y="-0.328125" width="336.932" height="1633" fill="#020202" fill-opacity="0.02"/>
<rect x="4560.07" y="-0.328125" width="336.932" height="1633" fill="#020202" fill-opacity="0.02"/>
<path d="M425.173 335.256V201.003H476.441C486.292 201.003 494.792 202.745 501.94 206.229C509.149 209.713 514.675 214.669 518.519 221.096C522.424 227.523 524.376 235.122 524.376 243.892C524.376 252.722 522.394 260.351 518.429 266.778C514.465 273.205 508.848 278.191 501.58 281.735C494.372 285.219 485.842 286.961 475.991 286.961H448.96V335.256H425.173ZM448.96 266.598H475.09C483.079 266.598 489.386 264.585 494.011 260.561C498.637 256.476 500.949 250.92 500.949 243.892C500.949 236.924 498.637 231.428 494.011 227.403C489.386 223.378 483.079 221.366 475.09 221.366H448.96V266.598ZM538.162 335.256V240.108H560.057V255.876H560.327C562.069 250.469 564.802 246.355 568.526 243.531C572.311 240.648 577.266 239.207 583.393 239.207C584.955 239.207 586.337 239.267 587.538 239.387C588.799 239.447 589.881 239.507 590.782 239.567V259.75C589.941 259.63 588.499 259.48 586.457 259.299C584.414 259.119 582.282 259.029 580.059 259.029C574.653 259.029 570.088 260.891 566.364 264.616C562.7 268.34 560.868 273.926 560.868 281.375V335.256H538.162ZM644.663 337.419C635.172 337.419 626.943 335.286 619.975 331.021C613.007 326.756 607.631 320.9 603.847 313.451C600.122 305.943 598.26 297.383 598.26 287.772C598.26 278.101 600.182 269.541 604.027 262.093C607.931 254.584 613.307 248.697 620.155 244.433C627.003 240.108 634.872 237.945 643.762 237.945C652.892 237.945 660.882 240.048 667.729 244.252C674.577 248.457 679.893 254.284 683.678 261.732C687.462 269.121 689.354 277.68 689.354 287.412V293.629H620.516C620.816 301.377 623.098 307.625 627.363 312.37C631.628 317.115 637.575 319.488 645.204 319.488C650.91 319.488 655.626 318.257 659.35 315.794C663.074 313.271 665.597 309.967 666.918 305.883H688.183C686.981 312.07 684.338 317.536 680.254 322.281C676.229 327.027 671.153 330.751 665.026 333.454C658.899 336.097 652.112 337.419 644.663 337.419ZM620.696 277.951H667.549C666.828 271.163 664.366 265.817 660.161 261.912C656.016 257.948 650.67 255.966 644.122 255.966C637.515 255.966 632.139 257.948 627.994 261.912C623.909 265.817 621.477 271.163 620.696 277.951ZM704.852 335.256V240.108H726.837V256.596C729.72 250.469 733.715 245.874 738.82 242.811C743.926 239.747 749.483 238.215 755.489 238.215C761.917 238.215 767.593 239.867 772.519 243.171C777.445 246.415 780.898 250.77 782.881 256.236C785.404 250.77 789.338 246.415 794.684 243.171C800.03 239.867 806.187 238.215 813.155 238.215C822.166 238.215 829.734 241.129 835.861 246.955C841.988 252.782 845.052 261.282 845.052 272.454V335.256H822.256V275.698C822.256 269.391 820.514 264.796 817.03 261.912C813.606 258.969 809.461 257.497 804.595 257.497C798.829 257.497 794.264 259.299 790.9 262.904C787.596 266.508 785.944 271.163 785.944 276.87V335.256H763.869V274.617C763.869 269.451 762.247 265.306 759.003 262.183C755.76 259.059 751.615 257.497 746.569 257.497C741.463 257.497 737.018 259.299 733.234 262.904C729.45 266.448 727.558 271.644 727.558 278.491V335.256H704.852ZM865.235 335.256V240.108H887.941V335.256H865.235ZM876.588 225.961C872.683 225.961 869.439 224.73 866.857 222.267C864.274 219.744 862.982 216.651 862.982 212.987C862.982 209.322 864.274 206.259 866.857 203.796C869.439 201.333 872.683 200.102 876.588 200.102C880.432 200.102 883.646 201.333 886.229 203.796C888.812 206.259 890.103 209.322 890.103 212.987C890.103 216.651 888.812 219.744 886.229 222.267C883.646 224.73 880.432 225.961 876.588 225.961ZM942.002 337.148C932.031 337.148 923.892 333.935 917.584 327.507C911.277 321.08 908.124 311.769 908.124 299.575V240.108H930.829V295.971C930.829 302.939 932.511 308.225 935.875 311.829C939.239 315.433 943.954 317.236 950.021 317.236C956.028 317.236 960.984 315.373 964.888 311.649C968.853 307.925 970.835 302.008 970.835 293.899V240.108H993.631V335.256H971.286V320.659C964.618 331.652 954.857 337.148 942.002 337.148ZM1013.9 335.256V240.108H1035.89V256.596C1038.77 250.469 1042.77 245.874 1047.87 242.811C1052.98 239.747 1058.54 238.215 1064.54 238.215C1070.97 238.215 1076.65 239.867 1081.57 243.171C1086.5 246.415 1089.95 250.77 1091.93 256.236C1094.46 250.77 1098.39 246.415 1103.74 243.171C1109.08 239.867 1115.24 238.215 1122.21 238.215C1131.22 238.215 1138.79 241.129 1144.91 246.955C1151.04 252.782 1154.1 261.282 1154.1 272.454V335.256H1131.31V275.698C1131.31 269.391 1129.57 264.796 1126.08 261.912C1122.66 258.969 1118.51 257.497 1113.65 257.497C1107.88 257.497 1103.32 259.299 1099.95 262.904C1096.65 266.508 1095 271.163 1095 276.87V335.256H1072.92V274.617C1072.92 269.451 1071.3 265.306 1068.06 262.183C1064.81 259.059 1060.67 257.497 1055.62 257.497C1050.52 257.497 1046.07 259.299 1042.29 262.904C1038.5 266.448 1036.61 271.644 1036.61 278.491V335.256H1013.9ZM1216.09 335.256V240.108H1238.08V256.596C1240.96 250.469 1244.96 245.874 1250.06 242.811C1255.17 239.747 1260.73 238.215 1266.73 238.215C1273.16 238.215 1278.84 239.867 1283.76 243.171C1288.69 246.415 1292.14 250.77 1294.12 256.236C1296.65 250.77 1300.58 246.415 1305.93 243.171C1311.27 239.867 1317.43 238.215 1324.4 238.215C1333.41 238.215 1340.98 241.129 1347.1 246.955C1353.23 252.782 1356.29 261.282 1356.29 272.454V335.256H1333.5V275.698C1333.5 269.391 1331.76 264.796 1328.27 261.912C1324.85 258.969 1320.7 257.497 1315.84 257.497C1310.07 257.497 1305.51 259.299 1302.14 262.904C1298.84 266.508 1297.19 271.163 1297.19 276.87V335.256H1275.11V274.617C1275.11 269.451 1273.49 265.306 1270.25 262.183C1267 259.059 1262.86 257.497 1257.81 257.497C1252.71 257.497 1248.26 259.299 1244.48 262.904C1240.69 266.448 1238.8 271.644 1238.8 278.491V335.256H1216.09ZM1410.36 337.148C1400.39 337.148 1392.25 333.935 1385.94 327.507C1379.63 321.08 1376.48 311.769 1376.48 299.575V240.108H1399.18V295.971C1399.18 302.939 1400.87 308.225 1404.23 311.829C1407.59 315.433 1412.31 317.236 1418.38 317.236C1424.38 317.236 1429.34 315.373 1433.24 311.649C1437.21 307.925 1439.19 302.008 1439.19 293.899V240.108H1461.99V335.256H1439.64V320.659C1432.97 331.652 1423.21 337.148 1410.36 337.148ZM1504.96 201.003V335.256H1482.26V201.003H1504.96ZM1576.24 240.108V258.398H1556.86V307.955C1556.86 311.379 1557.55 313.752 1558.94 315.073C1560.32 316.335 1562.84 316.965 1566.5 316.965H1576.24V335.256H1562.54C1552.87 335.256 1545.69 333.304 1541.01 329.399C1536.38 325.495 1534.07 319.458 1534.07 311.289V258.398H1517.49V240.108H1534.07V214.158H1556.86V240.108H1576.24ZM1590.56 335.256V240.108H1613.27V335.256H1590.56ZM1601.91 225.961C1598.01 225.961 1594.77 224.73 1592.18 222.267C1589.6 219.744 1588.31 216.651 1588.31 212.987C1588.31 209.322 1589.6 206.259 1592.18 203.796C1594.77 201.333 1598.01 200.102 1601.91 200.102C1605.76 200.102 1608.97 201.333 1611.56 203.796C1614.14 206.259 1615.43 209.322 1615.43 212.987C1615.43 216.651 1614.14 219.744 1611.56 222.267C1608.97 224.73 1605.76 225.961 1601.91 225.961ZM1633.45 372.919V240.108H1655.8V253.353H1656.07C1659.07 248.307 1663.09 244.523 1668.14 242C1673.19 239.477 1678.77 238.215 1684.9 238.215C1693.07 238.215 1700.22 240.318 1706.34 244.523C1712.53 248.667 1717.34 254.464 1720.76 261.912C1724.24 269.301 1725.99 277.861 1725.99 287.592C1725.99 297.503 1724.27 306.183 1720.85 313.631C1717.49 321.02 1712.71 326.786 1706.52 330.931C1700.34 335.076 1693.1 337.148 1684.81 337.148C1678.56 337.148 1673.01 335.797 1668.14 333.094C1663.33 330.391 1659.43 326.336 1656.43 320.93H1656.16V372.919H1633.45ZM1679.49 318.137C1686.52 318.137 1692.2 315.524 1696.52 310.298C1700.85 305.012 1703.01 297.443 1703.01 287.592C1703.01 277.801 1700.85 270.262 1696.52 264.976C1692.2 259.69 1686.52 257.047 1679.49 257.047C1672.04 257.047 1666.07 259.84 1661.56 265.426C1657.12 270.953 1654.9 278.341 1654.9 287.592C1654.9 296.842 1657.12 304.261 1661.56 309.847C1666.07 315.373 1672.04 318.137 1679.49 318.137ZM1772.03 336.788C1762.54 336.788 1754.67 334.415 1748.42 329.67C1742.23 324.864 1739.14 317.716 1739.14 308.225C1739.14 301.017 1740.88 295.461 1744.37 291.556C1747.91 287.592 1752.51 284.708 1758.15 282.906C1763.86 281.104 1769.99 279.873 1776.53 279.212C1785.36 278.191 1791.52 277.29 1795.01 276.509C1798.49 275.728 1800.23 273.716 1800.23 270.472V269.751C1800.23 265.667 1798.67 262.333 1795.55 259.75C1792.48 257.167 1788.25 255.876 1782.84 255.876C1777.31 255.876 1772.81 257.167 1769.33 259.75C1765.9 262.333 1764.04 265.637 1763.74 269.661H1741.84C1742.39 260.231 1746.32 252.632 1753.65 246.865C1760.98 241.099 1770.86 238.215 1783.29 238.215C1795.67 238.215 1805.34 241.099 1812.3 246.865C1819.27 252.632 1822.76 260.471 1822.76 270.382V335.256H1800.41V321.831H1800.05C1797.77 326.036 1794.46 329.58 1790.14 332.463C1785.81 335.346 1779.78 336.788 1772.03 336.788ZM1777.62 319.939C1785.06 319.939 1790.71 318.016 1794.55 314.172C1798.4 310.268 1800.32 305.552 1800.32 300.026V289.754C1798.94 290.655 1796.27 291.496 1792.3 292.277C1788.34 292.998 1784.01 293.719 1779.33 294.44C1774.46 295.16 1770.23 296.542 1766.62 298.584C1763.08 300.567 1761.31 303.72 1761.31 308.045C1761.31 311.769 1762.78 314.683 1765.72 316.785C1768.67 318.887 1772.63 319.939 1777.62 319.939ZM1886.01 374.18C1873.45 374.18 1863.48 371.477 1856.09 366.071C1848.71 360.665 1844.38 353.337 1843.12 344.086H1865.38C1866.46 348.171 1868.83 351.264 1872.49 353.367C1876.16 355.529 1880.66 356.61 1886.01 356.61C1893.1 356.61 1898.59 354.688 1902.5 350.844C1906.46 346.999 1908.44 341.443 1908.44 334.175V319.668H1908.35C1905.29 325.255 1901.3 329.369 1896.37 332.012C1891.45 334.595 1885.86 335.887 1879.61 335.887C1871.32 335.887 1864.08 333.814 1857.9 329.67C1851.71 325.525 1846.9 319.818 1843.48 312.55C1840.12 305.222 1838.43 296.782 1838.43 287.231C1838.43 277.62 1840.15 269.121 1843.57 261.732C1846.99 254.344 1851.8 248.577 1857.99 244.433C1864.17 240.288 1871.32 238.215 1879.43 238.215C1885.62 238.215 1891.2 239.537 1896.19 242.18C1901.24 244.763 1905.32 248.787 1908.44 254.254H1908.53V240.108H1930.97V332.823C1930.97 342.614 1929.02 350.544 1925.11 356.61C1921.21 362.737 1915.86 367.183 1909.08 369.946C1902.29 372.769 1894.6 374.18 1886.01 374.18ZM1884.93 317.145C1892.38 317.145 1898.32 314.412 1902.77 308.946C1907.27 303.42 1909.53 296.091 1909.53 286.961C1909.53 277.831 1907.27 270.532 1902.77 265.066C1898.32 259.54 1892.38 256.777 1884.93 256.777C1877.9 256.777 1872.22 259.39 1867.9 264.616C1863.57 269.841 1861.41 277.29 1861.41 286.961C1861.41 296.692 1863.57 304.171 1867.9 309.397C1872.22 314.563 1877.9 317.145 1884.93 317.145ZM1993.14 337.419C1983.65 337.419 1975.42 335.286 1968.45 331.021C1961.49 326.756 1956.11 320.9 1952.32 313.451C1948.6 305.943 1946.74 297.383 1946.74 287.772C1946.74 278.101 1948.66 269.541 1952.5 262.093C1956.41 254.584 1961.79 248.697 1968.63 244.433C1975.48 240.108 1983.35 237.945 1992.24 237.945C2001.37 237.945 2009.36 240.048 2016.21 244.252C2023.06 248.457 2028.37 254.284 2032.16 261.732C2035.94 269.121 2037.83 277.68 2037.83 287.412V293.629H1968.99C1969.29 301.377 1971.58 307.625 1975.84 312.37C1980.11 317.115 1986.05 319.488 1993.68 319.488C1999.39 319.488 2004.1 318.257 2007.83 315.794C2011.55 313.271 2014.08 309.967 2015.4 305.883H2036.66C2035.46 312.07 2032.82 317.536 2028.73 322.281C2024.71 327.027 2019.63 330.751 2013.5 333.454C2007.38 336.097 2000.59 337.419 1993.14 337.419ZM1969.17 277.951H2016.03C2015.31 271.163 2012.84 265.817 2008.64 261.912C2004.49 257.948 1999.15 255.966 1992.6 255.966C1985.99 255.966 1980.62 257.948 1976.47 261.912C1972.39 265.817 1969.95 271.163 1969.17 277.951ZM2145.32 240.108V258.398H2125.95V307.955C2125.95 311.379 2126.64 313.752 2128.03 315.073C2129.41 316.335 2131.93 316.965 2135.59 316.965H2145.32V335.256H2131.63C2121.96 335.256 2114.78 333.304 2110.09 329.399C2105.47 325.495 2103.16 319.458 2103.16 311.289V258.398H2086.58V240.108H2103.16V214.158H2125.95V240.108H2145.32ZM2182.36 281.465V335.256H2159.65V201.003H2182.36V254.074C2188.96 243.501 2198.58 238.215 2211.19 238.215C2221.16 238.215 2229.3 241.429 2235.61 247.856C2241.97 254.284 2245.16 263.594 2245.16 275.788V335.256H2222.36V279.392C2222.36 272.424 2220.68 267.138 2217.32 263.534C2213.95 259.93 2209.24 258.128 2203.17 258.128C2197.22 258.128 2192.27 259.99 2188.3 263.715C2184.34 267.439 2182.36 273.356 2182.36 281.465ZM2307.42 337.419C2297.93 337.419 2289.7 335.286 2282.73 331.021C2275.76 326.756 2270.39 320.9 2266.6 313.451C2262.88 305.943 2261.02 297.383 2261.02 287.772C2261.02 278.101 2262.94 269.541 2266.78 262.093C2270.69 254.584 2276.06 248.697 2282.91 244.433C2289.76 240.108 2297.63 237.945 2306.52 237.945C2315.65 237.945 2323.64 240.048 2330.49 244.252C2337.33 248.457 2342.65 254.284 2346.43 261.732C2350.22 269.121 2352.11 277.68 2352.11 287.412V293.629H2283.27C2283.57 301.377 2285.86 307.625 2290.12 312.37C2294.38 317.115 2300.33 319.488 2307.96 319.488C2313.67 319.488 2318.38 318.257 2322.11 315.794C2325.83 313.271 2328.35 309.967 2329.67 305.883H2350.94C2349.74 312.07 2347.09 317.536 2343.01 322.281C2338.99 327.027 2333.91 330.751 2327.78 333.454C2321.66 336.097 2314.87 337.419 2307.42 337.419ZM2283.45 277.951H2330.31C2329.58 271.163 2327.12 265.817 2322.92 261.912C2318.77 257.948 2313.43 255.966 2306.88 255.966C2300.27 255.966 2294.9 257.948 2290.75 261.912C2286.67 265.817 2284.23 271.163 2283.45 277.951ZM2367.61 335.256V240.108H2389.59V256.596C2392.48 250.469 2396.47 245.874 2401.58 242.811C2406.68 239.747 2412.24 238.215 2418.25 238.215C2424.67 238.215 2430.35 239.867 2435.28 243.171C2440.2 246.415 2443.65 250.77 2445.64 256.236C2448.16 250.77 2452.09 246.415 2457.44 243.171C2462.79 239.867 2468.94 238.215 2475.91 238.215C2484.92 238.215 2492.49 241.129 2498.62 246.955C2504.74 252.782 2507.81 261.282 2507.81 272.454V335.256H2485.01V275.698C2485.01 269.391 2483.27 264.796 2479.79 261.912C2476.36 258.969 2472.22 257.497 2467.35 257.497C2461.59 257.497 2457.02 259.299 2453.66 262.904C2450.35 266.508 2448.7 271.163 2448.7 276.87V335.256H2426.63V274.617C2426.63 269.451 2425 265.306 2421.76 262.183C2418.52 259.059 2414.37 257.497 2409.33 257.497C2404.22 257.497 2399.77 259.299 2395.99 262.904C2392.21 266.448 2390.31 271.644 2390.31 278.491V335.256H2367.61ZM2569.98 337.419C2560.49 337.419 2552.26 335.286 2545.29 331.021C2538.32 326.756 2532.95 320.9 2529.16 313.451C2525.44 305.943 2523.58 297.383 2523.58 287.772C2523.58 278.101 2525.5 269.541 2529.34 262.093C2533.25 254.584 2538.62 248.697 2545.47 244.433C2552.32 240.108 2560.19 237.945 2569.08 237.945C2578.21 237.945 2586.2 240.048 2593.05 244.252C2599.89 248.457 2605.21 254.284 2608.99 261.732C2612.78 269.121 2614.67 277.68 2614.67 287.412V293.629H2545.83C2546.13 301.377 2548.41 307.625 2552.68 312.37C2556.94 317.115 2562.89 319.488 2570.52 319.488C2576.23 319.488 2580.94 318.257 2584.67 315.794C2588.39 313.271 2590.91 309.967 2592.23 305.883H2613.5C2612.3 312.07 2609.65 317.536 2605.57 322.281C2601.55 327.027 2596.47 330.751 2590.34 333.454C2584.22 336.097 2577.43 337.419 2569.98 337.419ZM2546.01 277.951H2592.87C2592.14 271.163 2589.68 265.817 2585.48 261.912C2581.33 257.948 2575.99 255.966 2569.44 255.966C2562.83 255.966 2557.45 257.948 2553.31 261.912C2549.23 265.817 2546.79 271.163 2546.01 277.951ZM2667.47 337.509C2655.88 337.509 2646.18 334.806 2638.37 329.399C2630.62 323.933 2626.38 316.094 2625.66 305.883H2648.1C2648.58 310.508 2650.44 314.112 2653.68 316.695C2656.93 319.218 2661.4 320.479 2667.11 320.479C2672.58 320.479 2676.87 319.398 2679.99 317.236C2683.18 315.073 2684.77 312.31 2684.77 308.946C2684.77 306.063 2683.6 303.75 2681.26 302.008C2678.91 300.266 2675.76 298.975 2671.8 298.134L2655.58 294.8C2637.08 290.956 2627.83 281.795 2627.83 267.319C2627.83 258.549 2631.31 251.491 2638.28 246.144C2645.24 240.738 2654.53 238.035 2666.12 238.035C2677.65 238.035 2687.02 240.888 2694.23 246.595C2701.5 252.241 2705.25 259.96 2705.49 269.751H2684.14C2684.02 265.487 2682.37 261.973 2679.18 259.209C2676 256.446 2671.83 255.065 2666.66 255.065C2661.67 255.065 2657.74 256.176 2654.86 258.398C2651.97 260.621 2650.53 263.354 2650.53 266.598C2650.53 269.421 2651.64 271.734 2653.86 273.536C2656.09 275.278 2659.18 276.599 2663.15 277.5L2680.26 281.014C2689.7 282.996 2696.63 286.12 2701.08 290.385C2705.58 294.65 2707.84 300.266 2707.84 307.234C2707.84 313.421 2706.09 318.797 2702.61 323.363C2699.19 327.868 2694.44 331.352 2688.37 333.814C2682.31 336.277 2675.34 337.509 2667.47 337.509ZM466.17 560.419C456.919 560.419 448.78 558.316 441.752 554.111C434.784 549.907 429.348 544.08 425.443 536.631C421.599 529.183 419.676 520.563 419.676 510.772C419.676 500.981 421.599 492.361 425.443 484.912C429.348 477.404 434.784 471.547 441.752 467.342C448.78 463.078 456.919 460.945 466.17 460.945C474.159 460.945 481.277 462.507 487.524 465.63C493.771 468.694 498.787 472.959 502.571 478.425C506.415 483.831 508.668 490.078 509.329 497.166H487.073C486.232 492.061 484.04 487.916 480.496 484.732C477.012 481.489 472.327 479.867 466.44 479.867C458.991 479.867 453.165 482.66 448.96 488.246C444.755 493.833 442.653 501.341 442.653 510.772C442.653 520.143 444.755 527.621 448.96 533.208C453.165 538.734 458.991 541.497 466.44 541.497C472.387 541.497 477.012 539.935 480.316 536.812C483.619 533.628 485.812 529.393 486.893 524.107H509.329C508.788 531.075 506.596 537.292 502.751 542.758C498.967 548.225 493.921 552.55 487.614 555.733C481.367 558.857 474.219 560.419 466.17 560.419ZM524.646 558.256V463.108H546.541V478.876H546.811C548.553 473.469 551.287 469.355 555.011 466.531C558.795 463.648 563.751 462.207 569.878 462.207C571.44 462.207 572.821 462.267 574.023 462.387C575.284 462.447 576.365 462.507 577.266 462.567V482.75C576.425 482.63 574.984 482.48 572.941 482.299C570.899 482.119 568.767 482.029 566.544 482.029C561.138 482.029 556.573 483.891 552.848 487.616C549.184 491.34 547.352 496.926 547.352 504.375V558.256H524.646ZM617.632 559.788C608.141 559.788 600.272 557.415 594.025 552.67C587.838 547.864 584.745 540.716 584.745 531.225C584.745 524.017 586.487 518.461 589.971 514.556C593.515 510.592 598.11 507.708 603.756 505.906C609.463 504.104 615.59 502.873 622.137 502.212C630.967 501.191 637.124 500.29 640.608 499.509C644.092 498.728 645.834 496.716 645.834 493.472V492.751C645.834 488.667 644.273 485.333 641.149 482.75C638.086 480.167 633.851 478.876 628.445 478.876C622.918 478.876 618.413 480.167 614.929 482.75C611.505 485.333 609.643 488.637 609.343 492.661H587.448C587.988 483.231 591.923 475.632 599.251 469.865C606.58 464.099 616.461 461.215 628.895 461.215C641.269 461.215 650.94 464.099 657.908 469.865C664.876 475.632 668.36 483.471 668.36 493.382V558.256H646.015V544.831H645.654C643.372 549.036 640.068 552.58 635.743 555.463C631.418 558.346 625.381 559.788 617.632 559.788ZM623.219 542.939C630.667 542.939 636.314 541.016 640.158 537.172C644.002 533.268 645.925 528.552 645.925 523.026V512.754C644.543 513.655 641.87 514.496 637.905 515.277C633.941 515.998 629.616 516.719 624.931 517.44C620.065 518.16 615.83 519.542 612.226 521.584C608.682 523.567 606.91 526.72 606.91 531.045C606.91 534.769 608.382 537.683 611.325 539.785C614.268 541.887 618.233 542.939 623.219 542.939ZM739.181 463.108V481.398H719.809V558.256H697.013V481.398H679.893V463.108H697.013V449.232C697.013 441.062 699.476 434.815 704.401 430.49C709.387 426.165 716.565 424.003 725.936 424.003H739.181V442.294H730.441C726.536 442.294 723.773 443.105 722.151 444.727C720.59 446.348 719.809 449.112 719.809 453.016V463.108H739.181ZM795.765 463.108V481.398H776.393V530.955C776.393 534.379 777.084 536.752 778.466 538.073C779.847 539.335 782.37 539.965 786.034 539.965H795.765V558.256H782.07C772.399 558.256 765.221 556.304 760.535 552.399C755.91 548.495 753.597 542.458 753.597 534.289V481.398H737.018V463.108H753.597V437.158H776.393V463.108H795.765ZM850.638 560.419C841.147 560.419 832.918 558.286 825.95 554.021C818.982 549.756 813.606 543.9 809.821 536.451C806.097 528.943 804.235 520.383 804.235 510.772C804.235 501.101 806.157 492.541 810.002 485.093C813.906 477.584 819.282 471.697 826.13 467.433C832.978 463.108 840.847 460.945 849.737 460.945C858.867 460.945 866.857 463.048 873.704 467.252C880.552 471.457 885.868 477.284 889.653 484.732C893.437 492.121 895.329 500.68 895.329 510.412V516.629H826.49C826.791 524.377 829.073 530.625 833.338 535.37C837.603 540.115 843.55 542.488 851.179 542.488C856.885 542.488 861.601 541.257 865.325 538.794C869.049 536.271 871.572 532.967 872.893 528.883H894.158C892.956 535.07 890.313 540.536 886.229 545.281C882.204 550.027 877.128 553.751 871.001 556.454C864.874 559.097 858.087 560.419 850.638 560.419ZM826.671 500.951H873.524C872.803 494.163 870.34 488.817 866.136 484.912C861.991 480.948 856.645 478.966 850.097 478.966C843.49 478.966 838.114 480.948 833.969 484.912C829.884 488.817 827.452 494.163 826.671 500.951ZM947.589 560.148C939.299 560.148 932.061 558.076 925.874 553.931C919.687 549.786 914.881 544.02 911.457 536.631C908.094 529.183 906.412 520.503 906.412 510.592C906.412 500.861 908.124 492.301 911.548 484.912C914.971 477.464 919.777 471.667 925.964 467.523C932.151 463.318 939.299 461.215 947.408 461.215C953.595 461.215 959.152 462.477 964.077 465C969.003 467.523 972.998 471.397 976.061 476.623H976.241V424.003H998.947V558.256H976.602V543.75H976.421C973.418 549.276 969.393 553.391 964.348 556.094C959.362 558.797 953.776 560.148 947.589 560.148ZM952.905 541.137C960.353 541.137 966.3 538.373 970.745 532.847C975.25 527.261 977.503 519.842 977.503 510.592C977.503 501.341 975.25 493.953 970.745 488.426C966.3 482.84 960.353 480.047 952.905 480.047C945.877 480.047 940.2 482.69 935.875 487.976C931.55 493.262 929.388 500.801 929.388 510.592C929.388 520.443 931.55 528.012 935.875 533.298C940.2 538.524 945.877 541.137 952.905 541.137ZM1081.84 558.256L1052.47 463.108H1076.35L1086.17 499.239C1087.67 504.885 1089.11 510.712 1090.49 516.719C1091.87 522.726 1093.28 528.672 1094.73 534.559C1096.17 528.672 1097.64 522.726 1099.14 516.719C1100.64 510.712 1102.17 504.885 1103.74 499.239L1113.83 463.108H1134.82L1144.82 499.239C1146.33 504.885 1147.8 510.682 1149.24 516.629C1150.74 522.575 1152.24 528.492 1153.74 534.379C1155.13 528.492 1156.51 522.575 1157.89 516.629C1159.27 510.682 1160.71 504.885 1162.21 499.239L1172.03 463.108H1196.18L1166.72 558.256H1143.11L1131.58 518.611C1130.32 514.226 1129.09 509.721 1127.88 505.095C1126.68 500.47 1125.48 495.845 1124.28 491.22C1123.14 495.845 1121.97 500.47 1120.77 505.095C1119.56 509.721 1118.3 514.226 1116.98 518.611L1105.27 558.256H1081.84ZM1207.99 558.256V463.108H1230.69V558.256H1207.99ZM1219.34 448.961C1215.43 448.961 1212.19 447.73 1209.61 445.267C1207.02 442.744 1205.73 439.651 1205.73 435.987C1205.73 432.322 1207.02 429.259 1209.61 426.796C1212.19 424.333 1215.43 423.102 1219.34 423.102C1223.18 423.102 1226.4 424.333 1228.98 426.796C1231.56 429.259 1232.85 432.322 1232.85 435.987C1232.85 439.651 1231.56 442.744 1228.98 445.267C1226.4 447.73 1223.18 448.961 1219.34 448.961ZM1302.5 463.108V481.398H1283.13V530.955C1283.13 534.379 1283.82 536.752 1285.2 538.073C1286.59 539.335 1289.11 539.965 1292.77 539.965H1302.5V558.256H1288.81C1279.14 558.256 1271.96 556.304 1267.27 552.399C1262.65 548.495 1260.34 542.458 1260.34 534.289V481.398H1243.76V463.108H1260.34V437.158H1283.13V463.108H1302.5ZM1339.54 504.465V558.256H1316.83V424.003H1339.54V477.074C1346.14 466.501 1355.75 461.215 1368.37 461.215C1378.34 461.215 1386.48 464.429 1392.79 470.856C1399.15 477.284 1402.34 486.594 1402.34 498.788V558.256H1379.54V502.392C1379.54 495.424 1377.86 490.138 1374.5 486.534C1371.13 482.93 1366.42 481.128 1360.35 481.128C1354.4 481.128 1349.45 482.99 1345.48 486.715C1341.52 490.439 1339.54 496.356 1339.54 504.465ZM1455.5 558.256L1503.43 424.003H1533.35L1581.1 558.256H1554.88L1544.16 526.18H1492.08L1481.09 558.256H1455.5ZM1498.75 506.627H1537.67L1531.36 487.706C1529.38 481.519 1527.34 475.061 1525.24 468.334C1523.2 461.606 1520.91 454.007 1518.39 445.538C1515.87 454.007 1513.55 461.606 1511.45 468.334C1509.35 475.061 1507.28 481.519 1505.23 487.706L1498.75 506.627ZM1628.22 560.509C1616.63 560.509 1606.93 557.806 1599.12 552.399C1591.37 546.933 1587.14 539.094 1586.42 528.883H1608.85C1609.33 533.508 1611.2 537.112 1614.44 539.695C1617.68 542.218 1622.16 543.479 1627.86 543.479C1633.33 543.479 1637.63 542.398 1640.75 540.236C1643.93 538.073 1645.52 535.31 1645.52 531.946C1645.52 529.063 1644.35 526.75 1642.01 525.008C1639.67 523.266 1636.51 521.975 1632.55 521.134L1616.33 517.8C1597.83 513.956 1588.58 504.795 1588.58 490.319C1588.58 481.549 1592.06 474.491 1599.03 469.144C1606 463.738 1615.28 461.035 1626.87 461.035C1638.41 461.035 1647.78 463.888 1654.99 469.595C1662.25 475.241 1666.01 482.96 1666.25 492.751H1644.89C1644.77 488.487 1643.12 484.973 1639.94 482.209C1636.75 479.446 1632.58 478.065 1627.41 478.065C1622.43 478.065 1618.49 479.176 1615.61 481.398C1612.73 483.621 1611.29 486.354 1611.29 489.598C1611.29 492.421 1612.4 494.734 1614.62 496.536C1616.84 498.278 1619.94 499.599 1623.9 500.5L1641.02 504.014C1650.45 505.996 1657.39 509.12 1661.83 513.385C1666.34 517.65 1668.59 523.266 1668.59 530.234C1668.59 536.421 1666.85 541.797 1663.36 546.363C1659.94 550.868 1655.2 554.352 1649.13 556.814C1643.06 559.277 1636.09 560.509 1628.22 560.509ZM1736.08 463.108V481.398H1716.71V530.955C1716.71 534.379 1717.4 536.752 1718.78 538.073C1720.16 539.335 1722.68 539.965 1726.35 539.965H1736.08V558.256H1722.38C1712.71 558.256 1705.53 556.304 1700.85 552.399C1696.22 548.495 1693.91 542.458 1693.91 534.289V481.398H1677.33V463.108H1693.91V437.158H1716.71V463.108H1736.08ZM1750.4 558.256V463.108H1772.3V478.876H1772.57C1774.31 473.469 1777.04 469.355 1780.77 466.531C1784.55 463.648 1789.51 462.207 1795.64 462.207C1797.2 462.207 1798.58 462.267 1799.78 462.387C1801.04 462.447 1802.12 462.507 1803.02 462.567V482.75C1802.18 482.63 1800.74 482.48 1798.7 482.299C1796.66 482.119 1794.52 482.029 1792.3 482.029C1786.9 482.029 1782.33 483.891 1778.61 487.616C1774.94 491.34 1773.11 496.926 1773.11 504.375V558.256H1750.4ZM1857.45 560.419C1848.08 560.419 1839.88 558.346 1832.85 554.201C1825.82 549.997 1820.32 544.17 1816.36 536.722C1812.45 529.273 1810.5 520.623 1810.5 510.772C1810.5 500.921 1812.45 492.271 1816.36 484.822C1820.32 477.314 1825.82 471.457 1832.85 467.252C1839.88 463.048 1848.08 460.945 1857.45 460.945C1866.76 460.945 1874.93 463.048 1881.95 467.252C1889.04 471.457 1894.54 477.314 1898.44 484.822C1902.41 492.271 1904.39 500.921 1904.39 510.772C1904.39 520.623 1902.41 529.273 1898.44 536.722C1894.54 544.17 1889.04 549.997 1881.95 554.201C1874.93 558.346 1866.76 560.419 1857.45 560.419ZM1857.45 541.407C1864.71 541.407 1870.51 538.674 1874.84 533.208C1879.16 527.741 1881.32 520.263 1881.32 510.772C1881.32 501.281 1879.16 493.773 1874.84 488.246C1870.51 482.72 1864.71 479.957 1857.45 479.957C1850.12 479.957 1844.29 482.72 1839.97 488.246C1835.64 493.712 1833.48 501.221 1833.48 510.772C1833.48 520.263 1835.64 527.741 1839.97 533.208C1844.29 538.674 1850.12 541.407 1857.45 541.407ZM1990.98 559.788C1981.49 559.788 1973.62 557.415 1967.37 552.67C1961.18 547.864 1958.09 540.716 1958.09 531.225C1958.09 524.017 1959.83 518.461 1963.32 514.556C1966.86 510.592 1971.46 507.708 1977.1 505.906C1982.81 504.104 1988.94 502.873 1995.48 502.212C2004.31 501.191 2010.47 500.29 2013.95 499.509C2017.44 498.728 2019.18 496.716 2019.18 493.472V492.751C2019.18 488.667 2017.62 485.333 2014.5 482.75C2011.43 480.167 2007.2 478.876 2001.79 478.876C1996.26 478.876 1991.76 480.167 1988.28 482.75C1984.85 485.333 1982.99 488.637 1982.69 492.661H1960.79C1961.33 483.231 1965.27 475.632 1972.6 469.865C1979.93 464.099 1989.81 461.215 2002.24 461.215C2014.62 461.215 2024.29 464.099 2031.25 469.865C2038.22 475.632 2041.71 483.471 2041.71 493.382V558.256H2019.36V544.831H2019C2016.72 549.036 2013.41 552.58 2009.09 555.463C2004.76 558.346 1998.73 559.788 1990.98 559.788ZM1996.56 542.939C2004.01 542.939 2009.66 541.016 2013.5 537.172C2017.35 533.268 2019.27 528.552 2019.27 523.026V512.754C2017.89 513.655 2015.22 514.496 2011.25 515.277C2007.29 515.998 2002.96 516.719 1998.28 517.44C1993.41 518.16 1989.18 519.542 1985.57 521.584C1982.03 523.567 1980.26 526.72 1980.26 531.045C1980.26 534.769 1981.73 537.683 1984.67 539.785C1987.61 541.887 1991.58 542.939 1996.56 542.939ZM2084.51 504.465V558.256H2061.8V463.108H2084.14V477.704C2090.75 466.712 2100.48 461.215 2113.34 461.215C2123.31 461.215 2131.45 464.429 2137.76 470.856C2144.12 477.284 2147.31 486.594 2147.31 498.788V558.256H2124.51V502.392C2124.51 495.424 2122.83 490.138 2119.47 486.534C2116.1 482.93 2111.39 481.128 2105.32 481.128C2099.37 481.128 2094.42 482.99 2090.45 486.715C2086.49 490.439 2084.51 496.356 2084.51 504.465ZM2204.34 560.148C2196.05 560.148 2188.81 558.076 2182.63 553.931C2176.44 549.786 2171.63 544.02 2168.21 536.631C2164.85 529.183 2163.17 520.503 2163.17 510.592C2163.17 500.861 2164.88 492.301 2168.3 484.912C2171.72 477.464 2176.53 471.667 2182.72 467.523C2188.9 463.318 2196.05 461.215 2204.16 461.215C2210.35 461.215 2215.91 462.477 2220.83 465C2225.76 467.523 2229.75 471.397 2232.81 476.623H2232.99V424.003H2255.7V558.256H2233.36V543.75H2233.17C2230.17 549.276 2226.15 553.391 2221.1 556.094C2216.12 558.797 2210.53 560.148 2204.34 560.148ZM2209.66 541.137C2217.11 541.137 2223.05 538.373 2227.5 532.847C2232 527.261 2234.26 519.842 2234.26 510.592C2234.26 501.341 2232 493.953 2227.5 488.426C2223.05 482.84 2217.11 480.047 2209.66 480.047C2202.63 480.047 2196.95 482.69 2192.63 487.976C2188.3 493.262 2186.14 500.801 2186.14 510.592C2186.14 520.443 2188.3 528.012 2192.63 533.298C2196.95 538.524 2202.63 541.137 2209.66 541.137ZM418.145 667.637V647.003H525.457V667.637H483.83V781.256H459.952V667.637H418.145ZM548.614 782.788C539.123 782.788 531.254 780.415 525.007 775.67C518.82 770.864 515.726 763.716 515.726 754.225C515.726 747.017 517.468 741.461 520.952 737.556C524.496 733.592 529.091 730.708 534.738 728.906C540.444 727.104 546.571 725.873 553.119 725.212C561.949 724.191 568.106 723.29 571.59 722.509C575.074 721.728 576.816 719.716 576.816 716.472V715.751C576.816 711.667 575.254 708.333 572.13 705.75C569.067 703.167 564.832 701.876 559.426 701.876C553.9 701.876 549.394 703.167 545.91 705.75C542.487 708.333 540.624 711.637 540.324 715.661H518.429C518.97 706.231 522.904 698.632 530.233 692.865C537.561 687.099 547.442 684.215 559.876 684.215C572.25 684.215 581.922 687.099 588.889 692.865C595.857 698.632 599.341 706.471 599.341 716.382V781.256H576.996V767.831H576.635C574.353 772.036 571.049 775.58 566.724 778.463C562.399 781.346 556.362 782.788 548.614 782.788ZM554.2 765.939C561.648 765.939 567.295 764.016 571.139 760.172C574.984 756.268 576.906 751.552 576.906 746.026V735.754C575.524 736.655 572.851 737.496 568.887 738.277C564.922 738.998 560.597 739.719 555.912 740.44C551.046 741.16 546.811 742.542 543.207 744.584C539.663 746.567 537.891 749.72 537.891 754.045C537.891 757.769 539.363 760.683 542.306 762.785C545.25 764.887 549.214 765.939 554.2 765.939ZM619.434 781.256V686.108H642.14V781.256H619.434ZM630.787 671.961C626.883 671.961 623.639 670.73 621.056 668.267C618.473 665.744 617.182 662.651 617.182 658.987C617.182 655.322 618.473 652.259 621.056 649.796C623.639 647.333 626.883 646.102 630.787 646.102C634.632 646.102 637.845 647.333 640.428 649.796C643.011 652.259 644.303 655.322 644.303 658.987C644.303 662.651 643.011 665.744 640.428 668.267C637.845 670.73 634.632 671.961 630.787 671.961ZM685.029 647.003V781.256H662.323V647.003H685.029ZM726.116 781.256L696.742 686.108H720.62L730.441 722.239C731.943 727.885 733.384 733.712 734.766 739.719C736.147 745.726 737.559 751.672 739.001 757.559C740.442 751.672 741.914 745.726 743.416 739.719C744.917 733.712 746.449 727.885 748.011 722.239L758.102 686.108H779.096L789.098 722.239C790.6 727.885 792.071 733.682 793.513 739.629C795.015 745.575 796.516 751.492 798.018 757.379C799.4 751.492 800.781 745.575 802.163 739.629C803.544 733.682 804.986 727.885 806.488 722.239L816.309 686.108H840.456L810.993 781.256H787.386L775.853 741.611C774.591 737.226 773.36 732.721 772.159 728.095C770.957 723.47 769.756 718.845 768.554 714.22C767.413 718.845 766.242 723.47 765.04 728.095C763.839 732.721 762.578 737.226 761.256 741.611L749.543 781.256H726.116ZM852.26 781.256V686.108H874.966V781.256H852.26ZM863.613 671.961C859.708 671.961 856.465 670.73 853.882 668.267C851.299 665.744 850.007 662.651 850.007 658.987C850.007 655.322 851.299 652.259 853.882 649.796C856.465 647.333 859.708 646.102 863.613 646.102C867.457 646.102 870.671 647.333 873.254 649.796C875.837 652.259 877.128 655.322 877.128 658.987C877.128 662.651 875.837 665.744 873.254 668.267C870.671 670.73 867.457 671.961 863.613 671.961ZM917.855 727.465V781.256H895.149V686.108H917.494V700.704C924.102 689.712 933.833 684.215 946.688 684.215C956.659 684.215 964.798 687.429 971.105 693.856C977.473 700.284 980.656 709.594 980.656 721.788V781.256H957.86V725.392C957.86 718.424 956.178 713.138 952.815 709.534C949.451 705.93 944.735 704.128 938.668 704.128C932.722 704.128 927.766 705.99 923.801 709.715C919.837 713.439 917.855 719.356 917.855 727.465ZM1037.69 783.148C1029.4 783.148 1022.16 781.076 1015.98 776.931C1009.79 772.786 1004.98 767.02 1001.56 759.631C998.196 752.183 996.514 743.503 996.514 733.592C996.514 723.861 998.226 715.301 1001.65 707.912C1005.07 700.464 1009.88 694.667 1016.07 690.523C1022.25 686.318 1029.4 684.215 1037.51 684.215C1043.7 684.215 1049.25 685.477 1054.18 688C1059.11 690.523 1063.1 694.397 1066.16 699.623H1066.34V647.003H1089.05V781.256H1066.7V766.75H1066.52C1063.52 772.276 1059.5 776.391 1054.45 779.094C1049.46 781.797 1043.88 783.148 1037.69 783.148ZM1043.01 764.137C1050.46 764.137 1056.4 761.373 1060.85 755.847C1065.35 750.261 1067.61 742.842 1067.61 733.592C1067.61 724.341 1065.35 716.953 1060.85 711.426C1056.4 705.84 1050.46 703.047 1043.01 703.047C1035.98 703.047 1030.3 705.69 1025.98 710.976C1021.65 716.262 1019.49 723.801 1019.49 733.592C1019.49 743.443 1021.65 751.012 1025.98 756.298C1030.3 761.524 1035.98 764.137 1043.01 764.137ZM1210.69 783.419C1198.31 783.419 1187.38 780.565 1177.89 774.859C1168.4 769.152 1160.95 761.103 1155.55 750.711C1150.14 740.319 1147.44 728.156 1147.44 714.22C1147.44 700.164 1150.14 687.94 1155.55 677.548C1160.95 667.156 1168.4 659.107 1177.89 653.4C1187.38 647.694 1198.31 644.841 1210.69 644.841C1220.78 644.841 1229.91 646.823 1238.08 650.787C1246.25 654.752 1252.98 660.338 1258.26 667.546C1263.61 674.755 1267.03 683.254 1268.53 693.045H1244.3C1242.49 684.516 1238.62 677.908 1232.67 673.223C1226.73 668.538 1219.46 666.195 1210.87 666.195C1202.7 666.195 1195.64 668.177 1189.69 672.142C1183.81 676.106 1179.27 681.693 1176.09 688.901C1172.97 696.109 1171.4 704.549 1171.4 714.22C1171.4 723.831 1172.97 732.24 1176.09 739.448C1179.27 746.597 1183.81 752.153 1189.69 756.117C1195.58 760.082 1202.64 762.064 1210.87 762.064C1219.4 762.064 1226.64 759.752 1232.58 755.126C1238.53 750.501 1242.46 743.924 1244.39 735.394H1268.53C1267.03 745.185 1263.61 753.685 1258.26 760.893C1252.98 768.041 1246.25 773.597 1238.08 777.562C1229.91 781.466 1220.78 783.419 1210.69 783.419ZM1334.4 783.419C1317.76 783.419 1304.73 779.364 1295.3 771.255C1285.92 763.085 1281.24 751.823 1281.24 737.466H1304.58C1304.7 745.575 1307.37 751.913 1312.59 756.478C1317.88 761.043 1325.21 763.326 1334.58 763.326C1342.93 763.326 1349.66 761.584 1354.76 758.1C1359.87 754.556 1362.42 749.84 1362.42 743.954C1362.42 739.208 1360.5 735.364 1356.66 732.42C1352.81 729.417 1346.41 726.894 1337.46 724.852L1323.05 721.608C1309.65 718.545 1299.77 714.009 1293.4 708.003C1287.04 701.996 1283.85 694.277 1283.85 684.846C1283.85 676.857 1285.89 669.859 1289.98 663.852C1294.12 657.845 1299.89 653.19 1307.28 649.886C1314.73 646.522 1323.38 644.841 1333.23 644.841C1348.25 644.841 1360.14 648.655 1368.91 656.284C1377.74 663.912 1382.33 674.394 1382.69 687.729H1360.08C1359.6 680.641 1356.96 675.085 1352.15 671.06C1347.34 667.036 1341.01 665.024 1333.14 665.024C1325.69 665.024 1319.59 666.766 1314.85 670.249C1310.1 673.733 1307.73 678.209 1307.73 683.675C1307.73 688.18 1309.59 691.844 1313.32 694.667C1317.1 697.43 1323.38 699.803 1332.15 701.785L1345.75 704.939C1359.69 708.003 1369.9 712.568 1376.39 718.635C1382.88 724.702 1386.12 732.661 1386.12 742.512C1386.12 750.861 1384.02 758.1 1379.81 764.227C1375.61 770.354 1369.63 775.099 1361.88 778.463C1354.13 781.767 1344.97 783.419 1334.4 783.419ZM1452.43 783.419C1435.8 783.419 1422.76 779.364 1413.33 771.255C1403.96 763.085 1399.27 751.823 1399.27 737.466H1422.61C1422.73 745.575 1425.4 751.913 1430.63 756.478C1435.92 761.043 1443.24 763.326 1452.61 763.326C1460.96 763.326 1467.69 761.584 1472.8 758.1C1477.9 754.556 1480.46 749.84 1480.46 743.954C1480.46 739.208 1478.53 735.364 1474.69 732.42C1470.85 729.417 1464.45 726.894 1455.5 724.852L1441.08 721.608C1427.69 718.545 1417.8 714.009 1411.44 708.003C1405.07 701.996 1401.89 694.277 1401.89 684.846C1401.89 676.857 1403.93 669.859 1408.01 663.852C1412.16 657.845 1417.93 653.19 1425.31 649.886C1432.76 646.522 1441.41 644.841 1451.26 644.841C1466.28 644.841 1478.17 648.655 1486.94 656.284C1495.77 663.912 1500.37 674.394 1500.73 687.729H1478.11C1477.63 680.641 1474.99 675.085 1470.18 671.06C1465.38 667.036 1459.04 665.024 1451.17 665.024C1443.72 665.024 1437.63 666.766 1432.88 670.249C1428.14 673.733 1425.76 678.209 1425.76 683.675C1425.76 688.18 1427.63 691.844 1431.35 694.667C1435.13 697.43 1441.41 699.803 1450.18 701.785L1463.79 704.939C1477.72 708.003 1487.93 712.568 1494.42 718.635C1500.91 724.702 1504.15 732.661 1504.15 742.512C1504.15 750.861 1502.05 758.1 1497.85 764.227C1493.64 770.354 1487.66 775.099 1479.92 778.463C1472.17 781.767 1463.01 783.419 1452.43 783.419Z" fill="#020202"/>
<path fill-rule="evenodd" clip-rule="evenodd" d="M4316.16 233.122L4547.04 464.845L4207.78 802.875L4534.25 1069.07V1414.36H4207.13V803.527L3603.9 1404.57L3373.01 1172.85L3987.86 560.236H3371.17V233.122H4316.16Z" fill="#020202"/>
<path d="M3314 1404.85H3237.3V1391.72H3301.81V1359.14H3314V1404.85ZM3314 1343.42H3237.3V1297.4H3248.75V1330.5H3268.71V1301.08H3280.06V1330.5H3302.55V1297.4H3314V1343.42ZM3314 1286.73L3274.7 1265.5L3237.3 1285.47V1270.76L3256.53 1261.09C3257.93 1260.39 3259.29 1259.76 3260.62 1259.2C3261.89 1258.64 3262.87 1258.22 3263.57 1257.94C3262.87 1257.73 3261.89 1257.34 3260.62 1256.78C3259.29 1256.22 3257.93 1255.59 3256.53 1254.89L3237.3 1245.12V1230.83L3274.39 1250.79L3314 1229.57V1244.28L3292.78 1255.1C3291.37 1255.8 3290.01 1256.47 3288.68 1257.1C3287.35 1257.66 3286.3 1258.08 3285.53 1258.36C3286.3 1258.64 3287.35 1259.06 3288.68 1259.62C3290.01 1260.18 3291.37 1260.81 3292.78 1261.51L3314 1272.44V1286.73ZM3314 1217.21H3302.44V1201.77H3248.86V1217.21H3237.3V1173.08H3248.86V1188.53H3302.44V1173.08H3314V1217.21ZM3314 1156.1H3237.3V1140.03L3299.29 1118.7C3297.05 1118.91 3294.42 1119.15 3291.41 1119.43C3288.33 1119.64 3285.21 1119.82 3282.06 1119.96C3278.84 1120.1 3276.03 1120.17 3273.65 1120.17H3237.3V1108.19H3314V1124.27L3252.01 1145.39C3254.04 1145.25 3256.49 1145.07 3259.36 1144.86C3262.24 1144.65 3265.18 1144.48 3268.19 1144.33C3271.2 1144.19 3273.97 1144.12 3276.49 1144.12H3314V1156.1ZM3315.05 1068.73C3315.05 1073.63 3314.14 1077.94 3312.32 1081.65C3310.43 1085.29 3307.8 1088.13 3304.44 1090.16C3301.01 1092.12 3296.98 1093.1 3292.36 1093.1H3258.94C3254.25 1093.1 3250.22 1092.12 3246.86 1090.16C3243.5 1088.13 3240.91 1085.29 3239.09 1081.65C3237.19 1077.94 3236.25 1073.63 3236.25 1068.73C3236.25 1063.75 3237.19 1059.48 3239.09 1055.91C3240.91 1052.26 3243.5 1049.43 3246.86 1047.4C3250.22 1045.36 3254.25 1044.35 3258.94 1044.35V1057.59C3255.3 1057.59 3252.53 1058.57 3250.64 1060.53C3248.75 1062.42 3247.81 1065.15 3247.81 1068.73C3247.81 1072.3 3248.75 1075.06 3250.64 1077.03C3252.53 1078.99 3255.27 1079.97 3258.84 1079.97H3292.36C3295.93 1079.97 3298.69 1078.99 3300.66 1077.03C3302.62 1075.06 3303.6 1072.3 3303.6 1068.73C3303.6 1065.15 3302.62 1062.42 3300.66 1060.53C3298.69 1058.57 3295.93 1057.59 3292.36 1057.59H3284.58V1070.62H3273.23V1044.35H3292.36C3296.98 1044.35 3301.01 1045.36 3304.44 1047.4C3307.8 1049.43 3310.43 1052.26 3312.32 1055.91C3314.14 1059.48 3315.05 1063.75 3315.05 1068.73ZM3314 1012.76H3249.49V1032.83H3237.3V979.457H3249.49V999.525H3314V1012.76ZM3315.05 943.144C3315.05 948.047 3314.14 952.32 3312.32 955.962C3310.43 959.535 3307.8 962.302 3304.44 964.263C3301.01 966.154 3296.98 967.1 3292.36 967.1H3258.94C3254.32 967.1 3250.33 966.154 3246.97 964.263C3243.53 962.302 3240.91 959.535 3239.09 955.962C3237.19 952.32 3236.25 948.047 3236.25 943.144C3236.25 938.17 3237.19 933.898 3239.09 930.325C3240.91 926.753 3243.53 924.021 3246.97 922.13C3250.33 920.168 3254.29 919.188 3258.84 919.188H3292.36C3296.98 919.188 3301.01 920.168 3304.44 922.13C3307.8 924.021 3310.43 926.753 3312.32 930.325C3314.14 933.898 3315.05 938.17 3315.05 943.144ZM3303.49 943.144C3303.49 939.571 3302.55 936.875 3300.66 935.053C3298.69 933.232 3295.93 932.322 3292.36 932.322H3258.94C3255.3 932.322 3252.53 933.232 3250.64 935.053C3248.75 936.875 3247.81 939.571 3247.81 943.144C3247.81 946.716 3248.75 949.413 3250.64 951.234C3252.53 953.055 3255.3 953.966 3258.94 953.966H3292.36C3295.93 953.966 3298.69 953.055 3300.66 951.234C3302.55 949.343 3303.49 946.646 3303.49 943.144ZM3314 904.099H3237.3V888.023L3299.29 866.694C3297.05 866.904 3294.42 867.149 3291.41 867.429C3288.33 867.639 3285.21 867.815 3282.06 867.955C3278.84 868.095 3276.03 868.165 3273.65 868.165H3237.3V856.187H3314V872.262L3252.01 893.382C3254.04 893.241 3256.49 893.066 3259.36 892.856C3262.24 892.646 3265.18 892.471 3268.19 892.331C3271.2 892.191 3273.97 892.121 3276.49 892.121H3314V904.099ZM3314 823.761H3249.49V843.829H3237.3V790.454H3249.49V810.522H3314V823.761ZM3314 777.571H3237.3V764.438H3268.08V743.844H3237.3V730.71H3314V743.844H3280.27V764.438H3314V777.571ZM3314 713.415H3237.3V667.394H3248.75V700.491H3268.71V671.071H3280.06V700.491H3302.55V667.394H3314V713.415ZM3314 653.776H3237.3V638.225L3261.68 630.765C3264.13 629.995 3266.37 629.364 3268.4 628.874C3270.43 628.384 3271.9 628.069 3272.81 627.928C3271.9 627.788 3270.43 627.473 3268.4 626.983C3266.37 626.493 3264.13 625.897 3261.68 625.197L3237.3 618.052V602.502H3314V614.795H3290.15C3286.65 614.795 3282.83 614.69 3278.7 614.48C3274.56 614.269 3270.43 614.024 3266.3 613.744C3262.17 613.464 3258.24 613.149 3254.53 612.798C3250.82 612.378 3247.56 612.028 3244.76 611.748L3281.01 622.045V634.023L3244.76 644.635C3247.42 644.284 3250.57 643.934 3254.22 643.584C3257.79 643.234 3261.64 642.918 3265.77 642.638C3269.84 642.288 3273.97 642.008 3278.17 641.798C3282.37 641.588 3286.37 641.483 3290.15 641.483H3314V653.776ZM3314 587.413H3237.3V541.392H3248.75V574.489H3268.71V545.069H3280.06V574.489H3302.55V541.392H3314V587.413ZM3315.05 501.926C3315.05 507.18 3314.18 511.733 3312.42 515.586C3310.67 519.438 3308.19 522.415 3304.96 524.517C3301.67 526.548 3297.82 527.599 3293.41 527.669V514.535C3296.56 514.535 3299.05 513.414 3300.87 511.173C3302.62 508.861 3303.49 505.744 3303.49 501.821C3303.49 498.039 3302.62 495.097 3300.87 492.996C3299.12 490.824 3296.7 489.738 3293.62 489.738C3291.02 489.738 3288.78 490.509 3286.89 492.05C3284.93 493.521 3283.6 495.657 3282.9 498.459L3280.48 507.285C3278.94 513.309 3276.17 517.967 3272.18 521.259C3268.19 524.482 3263.36 526.093 3257.68 526.093C3253.34 526.093 3249.56 525.112 3246.33 523.151C3243.11 521.189 3240.63 518.422 3238.87 514.85C3237.12 511.208 3236.25 506.935 3236.25 502.032C3236.25 494.607 3238.17 488.723 3242.03 484.38C3245.81 480.037 3250.92 477.83 3257.37 477.76V490.894C3254.36 490.894 3252.01 491.875 3250.33 493.836C3248.58 495.797 3247.7 498.564 3247.7 502.137C3247.7 505.569 3248.51 508.231 3250.12 510.122C3251.73 512.013 3254 512.959 3256.95 512.959C3259.61 512.959 3261.89 512.258 3263.78 510.857C3265.6 509.386 3266.89 507.285 3267.66 504.553L3270.19 495.412C3271.73 489.318 3274.49 484.66 3278.49 481.438C3282.41 478.216 3287.28 476.605 3293.09 476.605C3297.43 476.605 3301.29 477.655 3304.65 479.757C3307.94 481.858 3310.5 484.8 3312.32 488.583C3314.14 492.365 3315.05 496.813 3315.05 501.926ZM3315.05 439.136C3315.05 442.148 3314.18 444.564 3312.42 446.385C3310.67 448.137 3308.29 449.012 3305.28 449.012C3302.27 449.012 3299.89 448.137 3298.13 446.385C3296.31 444.564 3295.4 442.148 3295.4 439.136C3295.4 436.124 3296.31 433.742 3298.13 431.991C3299.89 430.17 3302.27 429.259 3305.28 429.259C3308.29 429.259 3310.67 430.17 3312.42 431.991C3314.18 433.742 3315.05 436.124 3315.05 439.136ZM3315.05 375.714C3315.05 380.618 3314.14 384.925 3312.32 388.638C3310.43 392.28 3307.8 395.117 3304.44 397.149C3301.01 399.11 3296.98 400.091 3292.36 400.091H3258.94C3254.25 400.091 3250.22 399.11 3246.86 397.149C3243.5 395.117 3240.91 392.28 3239.09 388.638C3237.19 384.925 3236.25 380.618 3236.25 375.714C3236.25 370.741 3237.19 366.468 3239.09 362.896C3240.91 359.253 3243.5 356.416 3246.86 354.385C3250.22 352.354 3254.25 351.338 3258.94 351.338V364.577C3255.3 364.577 3252.53 365.558 3250.64 367.519C3248.75 369.41 3247.81 372.142 3247.81 375.714C3247.81 379.287 3248.75 382.054 3250.64 384.015C3252.53 385.976 3255.27 386.957 3258.84 386.957H3292.36C3295.93 386.957 3298.69 385.976 3300.66 384.015C3302.55 382.054 3303.49 379.287 3303.49 375.714C3303.49 372.142 3302.55 369.41 3300.66 367.519C3298.69 365.558 3295.93 364.577 3292.36 364.577V351.338C3296.91 351.338 3300.9 352.354 3304.33 354.385C3307.77 356.416 3310.43 359.253 3312.32 362.896C3314.14 366.468 3315.05 370.741 3315.05 375.714ZM3315.05 313.134C3315.05 318.037 3314.14 322.31 3312.32 325.952C3310.43 329.525 3307.8 332.291 3304.44 334.253C3301.01 336.144 3296.98 337.09 3292.36 337.09H3258.94C3254.32 337.09 3250.33 336.144 3246.97 334.253C3243.53 332.291 3240.91 329.525 3239.09 325.952C3237.19 322.31 3236.25 318.037 3236.25 313.134C3236.25 308.16 3237.19 303.887 3239.09 300.315C3240.91 296.743 3243.53 294.011 3246.97 292.12C3250.33 290.158 3254.29 289.178 3258.84 289.178H3292.36C3296.98 289.178 3301.01 290.158 3304.44 292.12C3307.8 294.011 3310.43 296.743 3312.32 300.315C3314.14 303.887 3315.05 308.16 3315.05 313.134ZM3303.49 313.134C3303.49 309.561 3302.55 306.864 3300.66 305.043C3298.69 303.222 3295.93 302.311 3292.36 302.311H3258.94C3255.3 302.311 3252.53 303.222 3250.64 305.043C3248.75 306.864 3247.81 309.561 3247.81 313.134C3247.81 316.706 3248.75 319.403 3250.64 321.224C3252.53 323.045 3255.3 323.956 3258.94 323.956H3292.36C3295.93 323.956 3298.69 323.045 3300.66 321.224C3302.55 319.333 3303.49 316.636 3303.49 313.134ZM3314 275.77H3237.3V260.219L3261.68 252.759C3264.13 251.989 3266.37 251.358 3268.4 250.868C3270.43 250.378 3271.9 250.062 3272.81 249.922C3271.9 249.782 3270.43 249.467 3268.4 248.977C3266.37 248.486 3264.13 247.891 3261.68 247.191L3237.3 240.046V224.495H3314V236.789H3290.15C3286.65 236.789 3282.83 236.684 3278.7 236.473C3274.56 236.263 3270.43 236.018 3266.3 235.738C3262.17 235.458 3258.24 235.143 3254.53 234.792C3250.82 234.372 3247.56 234.022 3244.76 233.742L3281.01 244.038V256.016L3244.76 266.629C3247.42 266.278 3250.57 265.928 3254.22 265.578C3257.79 265.228 3261.64 264.912 3265.77 264.632C3269.84 264.282 3273.97 264.002 3278.17 263.792C3282.37 263.582 3286.37 263.476 3290.15 263.476H3314V275.77Z" fill="#020202"/>
</g>
</g>
<defs>
<clipPath id="clip0_2349_94">
<rect width="4897.43" height="1632.48" fill="white"/>
</clipPath>
<clipPath id="clip1_2349_94">
<rect width="4897" height="1633" fill="white" transform="translate(0 -0.328125)"/>
</clipPath>
</defs>
</svg>
