<svg width="1457" height="2788" viewBox="0 0 1457 2788" fill="none" xmlns="http://www.w3.org/2000/svg">
<g clip-path="url(#clip0_2466_3190)">
<rect width="1457" height="2788" fill="#F5F5F5"/>
<rect width="100.247" height="2788" fill="#1F275F" fill-opacity="0.02"/>
<rect x="123.03" width="100.247" height="2788" fill="#1F275F" fill-opacity="0.02"/>
<rect x="247.2" width="100.247" height="2788" fill="#1F275F" fill-opacity="0.02"/>
<rect x="370.23" width="100.247" height="2788" fill="#1F275F" fill-opacity="0.02"/>
<rect x="493.261" width="100.247" height="2788" fill="#1F275F" fill-opacity="0.02"/>
<rect x="616.292" width="100.247" height="2788" fill="#1F275F" fill-opacity="0.02"/>
<rect x="740.462" width="100.247" height="2788" fill="#1F275F" fill-opacity="0.02"/>
<rect x="863.491" width="100.247" height="2788" fill="#1F275F" fill-opacity="0.02"/>
<rect x="986.523" width="100.247" height="2788" fill="#1F275F" fill-opacity="0.02"/>
<rect x="1109.55" width="100.247" height="2788" fill="#1F275F" fill-opacity="0.02"/>
<rect x="1233.72" width="100.247" height="2788" fill="#1F275F" fill-opacity="0.02"/>
<rect x="1356.75" width="100.247" height="2788" fill="#1F275F" fill-opacity="0.02"/>
<path d="M126.025 190V155.558H132.128V184.707H148.1V190H126.025ZM152.053 190V155.558H175.977V160.852H158.156V169.913H174.637V175.114H158.156V184.707H175.977V190H152.053ZM177.896 190L190.263 172.386L178.867 155.558H185.848L190.101 161.938C190.702 162.878 191.303 163.818 191.904 164.758C192.505 165.683 193.098 166.615 193.684 167.555C194.285 166.615 194.886 165.683 195.487 164.758C196.088 163.818 196.704 162.878 197.336 161.938L201.658 155.558H208.454L197.151 172.201L209.356 190H202.259L196.989 182.187C196.419 181.34 195.849 180.492 195.279 179.644C194.724 178.781 194.169 177.926 193.614 177.079C193.06 177.926 192.497 178.781 191.927 179.644C191.357 180.492 190.779 181.34 190.193 182.187L184.831 190H177.896ZM218.717 155.558V190H212.615V155.558H218.717ZM224.45 190V155.558H231.038L243.127 174.767C243.543 175.414 244.09 176.331 244.768 177.518C245.446 178.704 246.132 179.914 246.826 181.147C246.779 179.852 246.741 178.566 246.71 177.287C246.695 175.992 246.687 175.006 246.687 174.328V155.558H252.812V190H246.201L235.291 172.71C234.798 171.939 234.12 170.83 233.257 169.381C232.394 167.917 231.439 166.253 230.391 164.388C230.468 166.299 230.514 167.971 230.529 169.404C230.545 170.837 230.552 171.932 230.552 172.687V190H224.45ZM273.524 190.555C270.349 190.555 267.544 189.807 265.11 188.313C262.675 186.818 260.772 184.737 259.4 182.071C258.044 179.406 257.366 176.316 257.366 172.802C257.366 169.196 258.06 166.06 259.446 163.394C260.849 160.728 262.76 158.663 265.179 157.2C267.614 155.736 270.372 155.004 273.454 155.004C276.028 155.004 278.378 155.512 280.504 156.529C282.631 157.531 284.38 158.933 285.752 160.736C287.138 162.524 288.001 164.604 288.34 166.977H282.122C281.691 165.036 280.712 163.471 279.187 162.285C277.677 161.083 275.82 160.482 273.616 160.482C271.551 160.482 269.764 160.99 268.253 162.007C266.743 163.025 265.572 164.458 264.74 166.307C263.923 168.141 263.515 170.306 263.515 172.802C263.515 175.283 263.931 177.448 264.763 179.298C265.595 181.131 266.766 182.557 268.276 183.574C269.802 184.576 271.597 185.076 273.662 185.076C275.357 185.076 276.868 184.737 278.193 184.059C279.534 183.366 280.589 182.403 281.36 181.17C282.13 179.937 282.523 178.512 282.539 176.894H274.541V172.063H288.572V176.223C288.572 179.013 287.917 181.486 286.607 183.643C285.312 185.801 283.533 187.496 281.267 188.729C279.002 189.946 276.421 190.555 273.524 190.555ZM290.097 160.852V155.558H317.627V160.852H306.948V190H300.823V160.852H290.097ZM334.525 190.555C331.443 190.555 328.692 189.823 326.273 188.359C323.869 186.879 321.965 184.814 320.563 182.164C319.176 179.498 318.483 176.377 318.483 172.802C318.483 169.212 319.176 166.083 320.563 163.418C321.965 160.752 323.869 158.687 326.273 157.223C328.692 155.743 331.443 155.004 334.525 155.004C337.591 155.004 340.334 155.743 342.754 157.223C345.173 158.687 347.076 160.752 348.463 163.418C349.865 166.083 350.567 169.212 350.567 172.802C350.567 176.377 349.865 179.498 348.463 182.164C347.076 184.83 345.173 186.895 342.754 188.359C340.334 189.823 337.591 190.555 334.525 190.555ZM334.525 185.076C336.405 185.076 338.084 184.599 339.564 183.643C341.059 182.688 342.237 181.301 343.1 179.483C343.963 177.649 344.395 175.422 344.395 172.802C344.395 170.167 343.963 167.933 343.1 166.099C342.237 164.265 341.059 162.87 339.564 161.915C338.084 160.96 336.405 160.482 334.525 160.482C332.645 160.482 330.957 160.96 329.462 161.915C327.983 162.87 326.804 164.265 325.926 166.099C325.063 167.933 324.631 170.167 324.631 172.802C324.631 175.422 325.063 177.649 325.926 179.483C326.804 181.301 327.983 182.688 329.462 183.643C330.957 184.599 332.645 185.076 334.525 185.076ZM355.097 190V155.558H361.685L373.774 174.767C374.19 175.414 374.737 176.331 375.415 177.518C376.094 178.704 376.779 179.914 377.473 181.147C377.426 179.852 377.388 178.566 377.357 177.287C377.342 175.992 377.334 175.006 377.334 174.328V155.558H383.46V190H376.849L365.938 172.71C365.445 171.939 364.767 170.83 363.904 169.381C363.041 167.917 362.086 166.253 361.038 164.388C361.115 166.299 361.161 167.971 361.176 169.404C361.192 170.837 361.2 171.932 361.2 172.687V190H355.097Z" fill="#020202"/>
<path d="M1335 574.738H1307.94V571.402H1331.96V559.171H1335V574.738ZM1335 553.07H1307.94V537.504H1310.98V549.772H1319.36V538.801H1322.36V549.772H1331.96V537.504H1335V553.07ZM1335 533.071L1321.29 525.288L1307.94 532.663V528.809L1315.95 524.621C1316.37 524.398 1316.83 524.176 1317.32 523.954C1317.79 523.706 1318.16 523.509 1318.43 523.361C1318.16 523.237 1317.79 523.064 1317.32 522.842C1316.83 522.595 1316.37 522.36 1315.95 522.137L1307.94 517.875V514.206L1321.06 521.581L1335 513.798V517.616L1326.4 522.249C1325.98 522.471 1325.54 522.706 1325.07 522.953C1324.57 523.175 1324.18 523.348 1323.88 523.472C1324.18 523.595 1324.56 523.781 1325.03 524.028C1325.5 524.25 1325.94 524.472 1326.36 524.695L1335 529.365V533.071ZM1335 508.439H1331.96V502.916H1310.98V508.439H1307.94V493.984H1310.98V499.506H1331.96V493.984H1335V508.439ZM1335 486.771H1307.94V482.324L1331.11 474.059C1330.49 474.108 1329.74 474.17 1328.85 474.244C1327.93 474.294 1326.98 474.343 1325.99 474.392C1324.98 474.417 1324.03 474.429 1323.14 474.429H1307.94V471.205H1335V475.652L1311.84 483.88C1312.43 483.831 1313.18 483.782 1314.1 483.732C1314.99 483.683 1315.94 483.646 1316.95 483.621C1317.94 483.572 1318.89 483.547 1319.8 483.547H1335V486.771ZM1335.37 456.617C1335.37 458.247 1335.06 459.668 1334.44 460.879C1333.83 462.065 1332.94 462.991 1331.78 463.659C1330.59 464.301 1329.19 464.622 1327.59 464.622H1315.36C1313.73 464.622 1312.33 464.301 1311.17 463.659C1310.01 462.991 1309.12 462.065 1308.5 460.879C1307.88 459.668 1307.57 458.247 1307.57 456.617C1307.57 454.986 1307.89 453.577 1308.54 452.391C1309.15 451.205 1310.04 450.291 1311.21 449.649C1312.37 449.006 1313.75 448.685 1315.36 448.685V452.021C1313.82 452.021 1312.65 452.429 1311.84 453.244C1311 454.035 1310.58 455.159 1310.58 456.617C1310.58 458.074 1310.98 459.223 1311.8 460.063C1312.61 460.879 1313.79 461.287 1315.32 461.287H1327.59C1329.12 461.287 1330.31 460.879 1331.15 460.063C1331.99 459.223 1332.41 458.074 1332.41 456.617C1332.41 455.159 1331.99 454.035 1331.15 453.244C1330.31 452.429 1329.12 452.021 1327.59 452.021H1324.25V457.506H1321.21V448.685H1327.59C1329.17 448.685 1330.55 449.006 1331.74 449.649C1332.9 450.291 1333.8 451.205 1334.44 452.391C1335.06 453.577 1335.37 454.986 1335.37 456.617ZM1335 436.209H1310.95V443.622H1307.91V425.461H1310.95V432.874H1335V436.209ZM1335.37 412.318C1335.37 413.949 1335.06 415.358 1334.44 416.544C1333.83 417.705 1332.94 418.607 1331.78 419.249C1330.59 419.867 1329.19 420.176 1327.59 420.176H1315.36C1313.73 420.176 1312.33 419.867 1311.17 419.249C1310.01 418.607 1309.12 417.705 1308.5 416.544C1307.88 415.358 1307.57 413.949 1307.57 412.318C1307.57 410.688 1307.88 409.292 1308.5 408.13C1309.12 406.944 1310.01 406.042 1311.17 405.425C1312.33 404.782 1313.71 404.461 1315.32 404.461H1327.59C1329.19 404.461 1330.59 404.782 1331.78 405.425C1332.94 406.042 1333.83 406.944 1334.44 408.13C1335.06 409.292 1335.37 410.688 1335.37 412.318ZM1332.37 412.318C1332.37 410.861 1331.96 409.749 1331.15 408.983C1330.31 408.192 1329.12 407.797 1327.59 407.797H1315.36C1313.82 407.797 1312.65 408.192 1311.84 408.983C1311 409.749 1310.58 410.861 1310.58 412.318C1310.58 413.751 1311 414.863 1311.84 415.654C1312.65 416.445 1313.82 416.84 1315.36 416.84H1327.59C1329.12 416.84 1330.31 416.445 1331.15 415.654C1331.96 414.863 1332.37 413.751 1332.37 412.318ZM1335 397.878H1307.94V393.431L1331.11 385.166C1330.49 385.215 1329.74 385.277 1328.85 385.351C1327.93 385.401 1326.98 385.45 1325.99 385.499C1324.98 385.524 1324.03 385.536 1323.14 385.536H1307.94V382.312H1335V386.759L1311.84 394.987C1312.43 394.938 1313.18 394.889 1314.1 394.839C1314.99 394.79 1315.94 394.753 1316.95 394.728C1317.94 394.679 1318.89 394.654 1319.8 394.654H1335V397.878ZM1335 369.54H1310.95V376.952H1307.91V358.791H1310.95V366.204H1335V369.54ZM1335 353.321H1307.94V349.985H1319.51V341.312H1307.94V337.977H1335V341.312H1322.55V349.985H1335V353.321ZM1335 330.838H1307.94V315.272H1310.98V327.539H1319.36V316.569H1322.36V327.539H1331.96V315.272H1335V330.838ZM1335 309.504H1307.94V305.131L1316.69 302.314C1317.48 302.042 1318.27 301.795 1319.06 301.573C1319.83 301.35 1320.42 301.19 1320.84 301.091C1320.42 300.967 1319.83 300.807 1319.06 300.609C1318.27 300.411 1317.47 300.189 1316.65 299.942L1307.94 297.273V292.9H1335V296.162H1325.18C1324.09 296.162 1322.86 296.125 1321.47 296.05C1320.09 295.976 1318.68 295.877 1317.25 295.754C1315.79 295.63 1314.41 295.507 1313.1 295.383C1311.76 295.235 1310.6 295.111 1309.61 295.013L1323.14 299.386V302.907L1309.61 307.318C1310.58 307.194 1311.7 307.07 1312.98 306.947C1314.24 306.823 1315.59 306.712 1317.02 306.613C1318.43 306.514 1319.84 306.428 1321.25 306.354C1322.66 306.28 1323.97 306.243 1325.18 306.243H1335V309.504ZM1335 286.391H1307.94V270.825H1310.98V283.093H1319.36V272.122H1322.36V283.093H1331.96V270.825H1335V286.391ZM1335.37 256.607C1335.37 258.386 1335.07 259.918 1334.48 261.203C1333.89 262.463 1333.04 263.439 1331.92 264.131C1330.81 264.823 1329.49 265.181 1327.96 265.206V261.87C1329.32 261.87 1330.39 261.413 1331.18 260.499C1331.97 259.56 1332.37 258.263 1332.37 256.607C1332.37 255.051 1331.99 253.84 1331.22 252.975C1330.45 252.086 1329.39 251.641 1328.03 251.641C1326.95 251.641 1325.99 251.937 1325.18 252.53C1324.36 253.099 1323.79 253.927 1323.47 255.014L1322.32 258.683C1321.76 260.536 1320.8 261.969 1319.47 262.982C1318.14 263.971 1316.57 264.465 1314.76 264.465C1313.31 264.465 1312.05 264.144 1310.98 263.501C1309.9 262.834 1309.06 261.907 1308.46 260.721C1307.85 259.535 1307.54 258.139 1307.54 256.533C1307.54 254.161 1308.2 252.259 1309.54 250.826C1310.85 249.392 1312.6 248.664 1314.8 248.639V251.975C1313.47 251.975 1312.43 252.382 1311.69 253.198C1310.92 253.988 1310.54 255.113 1310.54 256.57C1310.54 258.003 1310.88 259.128 1311.58 259.943C1312.27 260.734 1313.23 261.129 1314.47 261.129C1315.58 261.129 1316.54 260.833 1317.36 260.24C1318.17 259.647 1318.75 258.794 1319.1 257.682L1320.29 253.976C1320.85 252.172 1321.82 250.776 1323.18 249.788C1324.54 248.799 1326.13 248.305 1327.96 248.305C1329.44 248.305 1330.74 248.651 1331.85 249.343C1332.96 250.035 1333.83 251.011 1334.44 252.271C1335.06 253.506 1335.37 254.952 1335.37 256.607ZM1335.37 234.532C1335.37 235.471 1335.1 236.225 1334.56 236.793C1334.01 237.337 1333.28 237.609 1332.37 237.609C1331.4 237.609 1330.64 237.337 1330.07 236.793C1329.5 236.225 1329.22 235.471 1329.22 234.532C1329.22 233.593 1329.5 232.852 1330.07 232.309C1330.64 231.74 1331.4 231.456 1332.37 231.456C1333.28 231.456 1334.01 231.74 1334.56 232.309C1335.1 232.852 1335.37 233.593 1335.37 234.532ZM1335.37 212.161C1335.37 213.792 1335.06 215.212 1334.44 216.423C1333.83 217.609 1332.94 218.536 1331.78 219.203C1330.59 219.845 1329.19 220.166 1327.59 220.166H1315.36C1313.73 220.166 1312.33 219.845 1311.17 219.203C1310.01 218.536 1309.12 217.609 1308.5 216.423C1307.88 215.212 1307.57 213.792 1307.57 212.161C1307.57 210.53 1307.89 209.122 1308.54 207.936C1309.15 206.75 1310.04 205.835 1311.21 205.193C1312.37 204.551 1313.75 204.229 1315.36 204.229V207.565C1313.82 207.565 1312.65 207.973 1311.84 208.788C1311 209.579 1310.58 210.703 1310.58 212.161C1310.58 213.619 1310.98 214.768 1311.8 215.608C1312.61 216.423 1313.79 216.831 1315.32 216.831H1327.59C1329.12 216.831 1330.31 216.423 1331.15 215.608C1331.96 214.768 1332.37 213.619 1332.37 212.161C1332.37 210.703 1331.96 209.579 1331.15 208.788C1330.31 207.973 1329.12 207.565 1327.59 207.565V204.229C1329.17 204.229 1330.55 204.551 1331.74 205.193C1332.9 205.835 1333.8 206.75 1334.44 207.936C1335.06 209.122 1335.37 210.53 1335.37 212.161ZM1335.37 190.086C1335.37 191.717 1335.06 193.125 1334.44 194.311C1333.83 195.472 1332.94 196.374 1331.78 197.017C1330.59 197.634 1329.19 197.943 1327.59 197.943H1315.36C1313.73 197.943 1312.33 197.634 1311.17 197.017C1310.01 196.374 1309.12 195.472 1308.5 194.311C1307.88 193.125 1307.57 191.717 1307.57 190.086C1307.57 188.455 1307.88 187.059 1308.5 185.898C1309.12 184.712 1310.01 183.81 1311.17 183.192C1312.33 182.55 1313.71 182.229 1315.32 182.229H1327.59C1329.19 182.229 1330.59 182.55 1331.78 183.192C1332.94 183.81 1333.83 184.712 1334.44 185.898C1335.06 187.059 1335.37 188.455 1335.37 190.086ZM1332.37 190.086C1332.37 188.628 1331.96 187.516 1331.15 186.75C1330.31 185.96 1329.12 185.564 1327.59 185.564H1315.36C1313.82 185.564 1312.65 185.96 1311.84 186.75C1311 187.516 1310.58 188.628 1310.58 190.086C1310.58 191.519 1311 192.631 1311.84 193.422C1312.65 194.212 1313.82 194.608 1315.36 194.608H1327.59C1329.12 194.608 1330.31 194.212 1331.15 193.422C1331.96 192.631 1332.37 191.519 1332.37 190.086ZM1335 176.165H1307.94V171.791L1316.69 168.975C1317.48 168.703 1318.27 168.456 1319.06 168.233C1319.83 168.011 1320.42 167.85 1320.84 167.751C1320.42 167.628 1319.83 167.467 1319.06 167.27C1318.27 167.072 1317.47 166.85 1316.65 166.603L1307.94 163.934V159.561H1335V162.822H1325.18C1324.09 162.822 1322.86 162.785 1321.47 162.711C1320.09 162.637 1318.68 162.538 1317.25 162.414C1315.79 162.291 1314.41 162.167 1313.1 162.044C1311.76 161.896 1310.6 161.772 1309.61 161.673L1323.14 166.047V169.568L1309.61 173.978C1310.58 173.854 1311.7 173.731 1312.98 173.607C1314.24 173.484 1315.59 173.373 1317.02 173.274C1318.43 173.175 1319.84 173.089 1321.25 173.014C1322.66 172.94 1323.97 172.903 1325.18 172.903H1335V176.165Z" fill="#020202"/>
<path d="M126.863 2545V2498.58H144.591C147.997 2498.58 150.936 2499.18 153.408 2500.39C155.9 2501.59 157.811 2503.3 159.14 2505.53C160.49 2507.75 161.166 2510.38 161.166 2513.41C161.166 2516.46 160.48 2519.1 159.109 2521.32C157.738 2523.54 155.796 2525.27 153.283 2526.49C150.791 2527.7 147.841 2528.3 144.435 2528.3H135.088V2545H126.863ZM135.088 2521.26H144.123C146.886 2521.26 149.067 2520.56 150.666 2519.17C152.265 2517.76 153.065 2515.84 153.065 2513.41C153.065 2511 152.265 2509.1 150.666 2507.71C149.067 2506.32 146.886 2505.62 144.123 2505.62H135.088V2521.26ZM165.932 2545V2512.1H173.503V2517.55H173.597C174.199 2515.68 175.144 2514.26 176.432 2513.28C177.74 2512.29 179.454 2511.79 181.572 2511.79C182.112 2511.79 182.59 2511.81 183.006 2511.85C183.442 2511.87 183.816 2511.89 184.127 2511.91V2518.89C183.836 2518.85 183.338 2518.8 182.632 2518.74C181.925 2518.67 181.188 2518.64 180.42 2518.64C178.55 2518.64 176.972 2519.29 175.684 2520.57C174.417 2521.86 173.783 2523.79 173.783 2526.37V2545H165.932ZM202.758 2545.75C199.476 2545.75 196.631 2545.01 194.222 2543.54C191.812 2542.06 189.953 2540.04 188.645 2537.46C187.357 2534.86 186.713 2531.9 186.713 2528.58C186.713 2525.24 187.378 2522.28 188.707 2519.7C190.057 2517.11 191.916 2515.07 194.284 2513.6C196.652 2512.1 199.373 2511.35 202.447 2511.35C205.604 2511.35 208.366 2512.08 210.734 2513.53C213.102 2514.99 214.94 2517 216.248 2519.58C217.557 2522.13 218.211 2525.09 218.211 2528.46V2530.61H194.408C194.512 2533.29 195.302 2535.45 196.776 2537.09C198.251 2538.73 200.307 2539.55 202.945 2539.55C204.918 2539.55 206.549 2539.12 207.836 2538.27C209.124 2537.4 209.997 2536.26 210.454 2534.84H217.806C217.391 2536.98 216.477 2538.87 215.065 2540.51C213.673 2542.15 211.918 2543.44 209.799 2544.38C207.681 2545.29 205.334 2545.75 202.758 2545.75ZM194.471 2525.19H210.672C210.422 2522.84 209.571 2520.99 208.117 2519.64C206.684 2518.27 204.835 2517.58 202.571 2517.58C200.286 2517.58 198.428 2518.27 196.994 2519.64C195.582 2520.99 194.741 2522.84 194.471 2525.19ZM223.57 2545V2512.1H231.172V2517.8C232.169 2515.68 233.55 2514.09 235.316 2513.03C237.081 2511.98 239.002 2511.45 241.079 2511.45C243.302 2511.45 245.265 2512.02 246.968 2513.16C248.671 2514.28 249.865 2515.79 250.551 2517.68C251.423 2515.79 252.784 2514.28 254.632 2513.16C256.481 2512.02 258.61 2511.45 261.019 2511.45C264.134 2511.45 266.752 2512.45 268.87 2514.47C270.989 2516.48 272.048 2519.42 272.048 2523.28V2545H264.166V2524.41C264.166 2522.23 263.563 2520.64 262.359 2519.64C261.175 2518.62 259.742 2518.11 258.059 2518.11C256.065 2518.11 254.487 2518.74 253.324 2519.98C252.181 2521.23 251.61 2522.84 251.61 2524.81V2545H243.977V2524.03C243.977 2522.25 243.416 2520.81 242.294 2519.73C241.173 2518.65 239.74 2518.11 237.995 2518.11C236.23 2518.11 234.693 2518.74 233.384 2519.98C232.075 2521.21 231.421 2523 231.421 2525.37V2545H223.57ZM279.027 2545V2512.1H286.878V2545H279.027ZM282.952 2507.21C281.602 2507.21 280.481 2506.78 279.588 2505.93C278.695 2505.06 278.248 2503.99 278.248 2502.72C278.248 2501.45 278.695 2500.4 279.588 2499.54C280.481 2498.69 281.602 2498.27 282.952 2498.27C284.282 2498.27 285.393 2498.69 286.286 2499.54C287.179 2500.4 287.626 2501.45 287.626 2502.72C287.626 2503.99 287.179 2505.06 286.286 2505.93C285.393 2506.78 284.282 2507.21 282.952 2507.21ZM305.571 2545.65C302.123 2545.65 299.309 2544.54 297.128 2542.32C294.947 2540.1 293.857 2536.88 293.857 2532.66V2512.1H301.708V2531.42C301.708 2533.83 302.29 2535.65 303.453 2536.9C304.616 2538.15 306.246 2538.77 308.344 2538.77C310.421 2538.77 312.135 2538.13 313.485 2536.84C314.856 2535.55 315.541 2533.5 315.541 2530.7V2512.1H323.423V2545H315.697V2539.95C313.391 2543.75 310.016 2545.65 305.571 2545.65ZM330.433 2545V2512.1H338.035V2517.8C339.032 2515.68 340.414 2514.09 342.179 2513.03C343.945 2511.98 345.866 2511.45 347.943 2511.45C350.165 2511.45 352.128 2512.02 353.831 2513.16C355.534 2514.28 356.729 2515.79 357.414 2517.68C358.286 2515.79 359.647 2514.28 361.495 2513.16C363.344 2512.02 365.473 2511.45 367.882 2511.45C370.998 2511.45 373.615 2512.45 375.734 2514.47C377.852 2516.48 378.911 2519.42 378.911 2523.28V2545H371.029V2524.41C371.029 2522.23 370.427 2520.64 369.222 2519.64C368.038 2518.62 366.605 2518.11 364.923 2518.11C362.929 2518.11 361.35 2518.74 360.187 2519.98C359.045 2521.23 358.473 2522.84 358.473 2524.81V2545H350.84V2524.03C350.84 2522.25 350.279 2520.81 349.158 2519.73C348.036 2518.65 346.603 2518.11 344.858 2518.11C343.093 2518.11 341.556 2518.74 340.247 2519.98C338.939 2521.21 338.285 2523 338.285 2525.37V2545H330.433ZM400.346 2545V2512.1H407.948V2517.8C408.945 2515.68 410.327 2514.09 412.092 2513.03C413.858 2511.98 415.779 2511.45 417.856 2511.45C420.078 2511.45 422.041 2512.02 423.744 2513.16C425.447 2514.28 426.642 2515.79 427.327 2517.68C428.199 2515.79 429.56 2514.28 431.408 2513.16C433.257 2512.02 435.386 2511.45 437.795 2511.45C440.911 2511.45 443.528 2512.45 445.647 2514.47C447.765 2516.48 448.824 2519.42 448.824 2523.28V2545H440.942V2524.41C440.942 2522.23 440.34 2520.64 439.135 2519.64C437.951 2518.62 436.518 2518.11 434.836 2518.11C432.842 2518.11 431.263 2518.74 430.1 2519.98C428.958 2521.23 428.386 2522.84 428.386 2524.81V2545H420.753V2524.03C420.753 2522.25 420.192 2520.81 419.071 2519.73C417.949 2518.65 416.516 2518.11 414.771 2518.11C413.006 2518.11 411.469 2518.74 410.16 2519.98C408.852 2521.21 408.198 2523 408.198 2525.37V2545H400.346ZM467.518 2545.65C464.07 2545.65 461.255 2544.54 459.075 2542.32C456.894 2540.1 455.803 2536.88 455.803 2532.66V2512.1H463.654V2531.42C463.654 2533.83 464.236 2535.65 465.399 2536.9C466.562 2538.15 468.193 2538.77 470.291 2538.77C472.368 2538.77 474.081 2538.13 475.431 2536.84C476.802 2535.55 477.487 2533.5 477.487 2530.7V2512.1H485.37V2545H477.643V2539.95C475.338 2543.75 471.963 2545.65 467.518 2545.65ZM500.231 2498.58V2545H492.38V2498.58H500.231ZM524.875 2512.1V2518.42H518.177V2535.56C518.177 2536.74 518.415 2537.56 518.893 2538.02C519.371 2538.46 520.243 2538.68 521.51 2538.68H524.875V2545H520.139C516.795 2545 514.313 2544.32 512.693 2542.97C511.094 2541.62 510.294 2539.54 510.294 2536.71V2518.42H504.562V2512.1H510.294V2503.13H518.177V2512.1H524.875ZM529.829 2545V2512.1H537.68V2545H529.829ZM533.754 2507.21C532.404 2507.21 531.283 2506.78 530.39 2505.93C529.496 2505.06 529.05 2503.99 529.05 2502.72C529.05 2501.45 529.496 2500.4 530.39 2499.54C531.283 2498.69 532.404 2498.27 533.754 2498.27C535.084 2498.27 536.195 2498.69 537.088 2499.54C537.981 2500.4 538.428 2501.45 538.428 2502.72C538.428 2503.99 537.981 2505.06 537.088 2505.93C536.195 2506.78 535.084 2507.21 533.754 2507.21ZM544.659 2558.02V2512.1H552.385V2516.68H552.479C553.517 2514.93 554.909 2513.63 556.654 2512.75C558.398 2511.88 560.33 2511.45 562.449 2511.45C565.273 2511.45 567.745 2512.17 569.864 2513.63C572.003 2515.06 573.665 2517.06 574.848 2519.64C576.053 2522.19 576.655 2525.15 576.655 2528.52C576.655 2531.95 576.064 2534.95 574.88 2537.52C573.716 2540.08 572.065 2542.07 569.926 2543.5C567.787 2544.94 565.284 2545.65 562.417 2545.65C560.257 2545.65 558.336 2545.19 556.654 2544.25C554.992 2543.32 553.642 2541.92 552.603 2540.05H552.51V2558.02H544.659ZM560.579 2539.08C563.009 2539.08 564.972 2538.18 566.468 2536.37C567.963 2534.54 568.711 2531.93 568.711 2528.52C568.711 2525.13 567.963 2522.53 566.468 2520.7C564.972 2518.87 563.009 2517.96 560.579 2517.96C558.004 2517.96 555.937 2518.92 554.379 2520.85C552.842 2522.77 552.074 2525.32 552.074 2528.52C552.074 2531.72 552.842 2534.28 554.379 2536.21C555.937 2538.13 558.004 2539.08 560.579 2539.08ZM592.576 2545.53C589.294 2545.53 586.573 2544.71 584.413 2543.07C582.274 2541.41 581.204 2538.94 581.204 2535.65C581.204 2533.16 581.807 2531.24 583.011 2529.89C584.237 2528.52 585.826 2527.52 587.778 2526.9C589.751 2526.28 591.87 2525.85 594.134 2525.62C597.187 2525.27 599.316 2524.96 600.521 2524.69C601.725 2524.42 602.328 2523.72 602.328 2522.6V2522.35C602.328 2520.94 601.788 2519.78 600.708 2518.89C599.648 2518 598.184 2517.55 596.315 2517.55C594.404 2517.55 592.846 2518 591.641 2518.89C590.457 2519.78 589.814 2520.93 589.71 2522.32H582.139C582.326 2519.06 583.686 2516.43 586.22 2514.44C588.754 2512.44 592.171 2511.45 596.47 2511.45C600.749 2511.45 604.093 2512.44 606.502 2514.44C608.912 2516.43 610.117 2519.14 610.117 2522.57V2545H602.39V2540.36H602.265C601.476 2541.81 600.334 2543.04 598.838 2544.03C597.343 2545.03 595.255 2545.53 592.576 2545.53ZM594.508 2539.7C597.083 2539.7 599.036 2539.04 600.365 2537.71C601.694 2536.36 602.359 2534.73 602.359 2532.82V2529.27C601.881 2529.58 600.957 2529.87 599.586 2530.14C598.215 2530.39 596.72 2530.64 595.1 2530.89C593.417 2531.14 591.953 2531.61 590.707 2532.32C589.481 2533.01 588.868 2534.1 588.868 2535.59C588.868 2536.88 589.377 2537.89 590.395 2538.61C591.413 2539.34 592.784 2539.7 594.508 2539.7ZM631.988 2558.46C627.647 2558.46 624.199 2557.52 621.644 2555.66C619.089 2553.79 617.594 2551.25 617.158 2548.05H624.853C625.227 2549.47 626.047 2550.54 627.314 2551.26C628.581 2552.01 630.139 2552.38 631.988 2552.38C634.439 2552.38 636.339 2551.72 637.689 2550.39C639.06 2549.06 639.745 2547.14 639.745 2544.63V2539.61H639.714C638.655 2541.54 637.274 2542.96 635.571 2543.88C633.867 2544.77 631.936 2545.22 629.776 2545.22C626.909 2545.22 624.407 2544.5 622.267 2543.07C620.128 2541.64 618.466 2539.66 617.282 2537.15C616.119 2534.61 615.538 2531.7 615.538 2528.39C615.538 2525.07 616.13 2522.13 617.313 2519.58C618.497 2517.02 620.159 2515.03 622.298 2513.6C624.438 2512.16 626.909 2511.45 629.713 2511.45C631.853 2511.45 633.784 2511.9 635.508 2512.82C637.253 2513.71 638.665 2515.1 639.745 2516.99H639.777V2512.1H647.534V2544.16C647.534 2547.54 646.859 2550.29 645.509 2552.38C644.159 2554.5 642.311 2556.04 639.963 2556.99C637.616 2557.97 634.958 2558.46 631.988 2558.46ZM631.614 2538.74C634.189 2538.74 636.246 2537.79 637.783 2535.9C639.34 2533.99 640.119 2531.46 640.119 2528.3C640.119 2525.14 639.34 2522.62 637.783 2520.73C636.246 2518.82 634.189 2517.86 631.614 2517.86C629.184 2517.86 627.221 2518.77 625.725 2520.57C624.23 2522.38 623.482 2524.96 623.482 2528.3C623.482 2531.67 624.23 2534.25 625.725 2536.06C627.221 2537.84 629.184 2538.74 631.614 2538.74ZM669.032 2545.75C665.75 2545.75 662.904 2545.01 660.495 2543.54C658.086 2542.06 656.227 2540.04 654.918 2537.46C653.63 2534.86 652.986 2531.9 652.986 2528.58C652.986 2525.24 653.651 2522.28 654.98 2519.7C656.331 2517.11 658.189 2515.07 660.557 2513.6C662.925 2512.1 665.646 2511.35 668.72 2511.35C671.877 2511.35 674.64 2512.08 677.007 2513.53C679.375 2514.99 681.213 2517 682.522 2519.58C683.83 2522.13 684.485 2525.09 684.485 2528.46V2530.61H660.682C660.786 2533.29 661.575 2535.45 663.05 2537.09C664.524 2538.73 666.581 2539.55 669.219 2539.55C671.192 2539.55 672.822 2539.12 674.11 2538.27C675.398 2537.4 676.27 2536.26 676.727 2534.84H684.08C683.664 2536.98 682.75 2538.87 681.338 2540.51C679.946 2542.15 678.191 2543.44 676.073 2544.38C673.954 2545.29 671.607 2545.75 669.032 2545.75ZM660.744 2525.19H676.945C676.696 2522.84 675.844 2520.99 674.39 2519.64C672.957 2518.27 671.109 2517.58 668.845 2517.58C666.56 2517.58 664.701 2518.27 663.268 2519.64C661.855 2520.99 661.014 2522.84 660.744 2525.19ZM721.653 2512.1V2518.42H714.955V2535.56C714.955 2536.74 715.194 2537.56 715.671 2538.02C716.149 2538.46 717.021 2538.68 718.288 2538.68H721.653V2545H716.918C713.574 2545 711.092 2544.32 709.471 2542.97C707.872 2541.62 707.073 2539.54 707.073 2536.71V2518.42H701.34V2512.1H707.073V2503.13H714.955V2512.1H721.653ZM734.458 2526.4V2545H726.607V2498.58H734.458V2516.93C736.743 2513.27 740.066 2511.45 744.428 2511.45C747.876 2511.45 750.69 2512.56 752.871 2514.78C755.073 2517 756.174 2520.22 756.174 2524.44V2545H748.291V2525.68C748.291 2523.27 747.71 2521.45 746.547 2520.2C745.383 2518.95 743.753 2518.33 741.655 2518.33C739.599 2518.33 737.885 2518.97 736.514 2520.26C735.144 2521.55 734.458 2523.6 734.458 2526.4ZM777.702 2545.75C774.42 2545.75 771.575 2545.01 769.165 2543.54C766.756 2542.06 764.897 2540.04 763.589 2537.46C762.301 2534.86 761.657 2531.9 761.657 2528.58C761.657 2525.24 762.322 2522.28 763.651 2519.7C765.001 2517.11 766.86 2515.07 769.228 2513.6C771.596 2512.1 774.316 2511.35 777.39 2511.35C780.548 2511.35 783.31 2512.08 785.678 2513.53C788.046 2514.99 789.884 2517 791.192 2519.58C792.501 2522.13 793.155 2525.09 793.155 2528.46V2530.61H769.352C769.456 2533.29 770.245 2535.45 771.72 2537.09C773.195 2538.73 775.251 2539.55 777.889 2539.55C779.862 2539.55 781.493 2539.12 782.78 2538.27C784.068 2537.4 784.941 2536.26 785.397 2534.84H792.75C792.335 2536.98 791.421 2538.87 790.008 2540.51C788.617 2542.15 786.862 2543.44 784.743 2544.38C782.625 2545.29 780.278 2545.75 777.702 2545.75ZM769.415 2525.19H785.616C785.366 2522.84 784.515 2520.99 783.061 2519.64C781.628 2518.27 779.779 2517.58 777.515 2517.58C775.23 2517.58 773.371 2518.27 771.938 2519.64C770.526 2520.99 769.685 2522.84 769.415 2525.19ZM798.514 2545V2512.1H806.116V2517.8C807.113 2515.68 808.494 2514.09 810.26 2513.03C812.025 2511.98 813.946 2511.45 816.023 2511.45C818.246 2511.45 820.209 2512.02 821.912 2513.16C823.615 2514.28 824.809 2515.79 825.495 2517.68C826.367 2515.79 827.727 2514.28 829.576 2513.16C831.425 2512.02 833.554 2511.45 835.963 2511.45C839.078 2511.45 841.696 2512.45 843.814 2514.47C845.933 2516.48 846.992 2519.42 846.992 2523.28V2545H839.11V2524.41C839.11 2522.23 838.507 2520.64 837.303 2519.64C836.119 2518.62 834.686 2518.11 833.003 2518.11C831.009 2518.11 829.431 2518.74 828.267 2519.98C827.125 2521.23 826.554 2522.84 826.554 2524.81V2545H818.921V2524.03C818.921 2522.25 818.36 2520.81 817.238 2519.73C816.117 2518.65 814.684 2518.11 812.939 2518.11C811.173 2518.11 809.636 2518.74 808.328 2519.98C807.019 2521.21 806.365 2523 806.365 2525.37V2545H798.514ZM868.489 2545.75C865.207 2545.75 862.362 2545.01 859.953 2543.54C857.543 2542.06 855.684 2540.04 854.376 2537.46C853.088 2534.86 852.444 2531.9 852.444 2528.58C852.444 2525.24 853.109 2522.28 854.438 2519.7C855.788 2517.11 857.647 2515.07 860.015 2513.6C862.383 2512.1 865.104 2511.35 868.178 2511.35C871.335 2511.35 874.097 2512.08 876.465 2513.53C878.833 2514.99 880.671 2517 881.98 2519.58C883.288 2522.13 883.942 2525.09 883.942 2528.46V2530.61H860.14C860.243 2533.29 861.033 2535.45 862.507 2537.09C863.982 2538.73 866.038 2539.55 868.676 2539.55C870.649 2539.55 872.28 2539.12 873.568 2538.27C874.855 2537.4 875.728 2536.26 876.185 2534.84H883.537C883.122 2536.98 882.208 2538.87 880.796 2540.51C879.404 2542.15 877.649 2543.44 875.53 2544.38C873.412 2545.29 871.065 2545.75 868.489 2545.75ZM860.202 2525.19H876.403C876.153 2522.84 875.302 2520.99 873.848 2519.64C872.415 2518.27 870.566 2517.58 868.302 2517.58C866.018 2517.58 864.159 2518.27 862.725 2519.64C861.313 2520.99 860.472 2522.84 860.202 2525.19ZM902.2 2545.78C898.191 2545.78 894.836 2544.84 892.136 2542.97C889.457 2541.08 887.993 2538.37 887.743 2534.84H895.501C895.667 2536.44 896.311 2537.69 897.433 2538.58C898.554 2539.45 900.102 2539.89 902.075 2539.89C903.965 2539.89 905.45 2539.52 906.53 2538.77C907.631 2538.02 908.181 2537.07 908.181 2535.9C908.181 2534.91 907.776 2534.11 906.966 2533.5C906.156 2532.9 905.066 2532.45 903.695 2532.16L898.087 2531.01C891.69 2529.68 888.491 2526.51 888.491 2521.51C888.491 2518.48 889.696 2516.04 892.105 2514.19C894.514 2512.32 897.723 2511.38 901.732 2511.38C905.72 2511.38 908.96 2512.37 911.453 2514.34C913.966 2516.3 915.264 2518.96 915.347 2522.35H907.963C907.922 2520.88 907.351 2519.66 906.25 2518.7C905.149 2517.75 903.705 2517.27 901.919 2517.27C900.195 2517.27 898.835 2517.66 897.838 2518.42C896.841 2519.19 896.342 2520.14 896.342 2521.26C896.342 2522.24 896.727 2523.04 897.495 2523.66C898.264 2524.26 899.333 2524.72 900.704 2525.03L906.624 2526.24C909.885 2526.93 912.284 2528.01 913.821 2529.48C915.378 2530.96 916.157 2532.9 916.157 2535.31C916.157 2537.45 915.555 2539.31 914.35 2540.89C913.166 2542.45 911.525 2543.65 909.428 2544.5C907.33 2545.35 904.92 2545.78 902.2 2545.78ZM946.004 2545.53C942.722 2545.53 940.002 2544.71 937.841 2543.07C935.702 2541.41 934.632 2538.94 934.632 2535.65C934.632 2533.16 935.235 2531.24 936.439 2529.89C937.665 2528.52 939.254 2527.52 941.206 2526.9C943.179 2526.28 945.298 2525.85 947.562 2525.62C950.615 2525.27 952.744 2524.96 953.949 2524.69C955.153 2524.42 955.756 2523.72 955.756 2522.6V2522.35C955.756 2520.94 955.216 2519.78 954.136 2518.89C953.076 2518 951.612 2517.55 949.743 2517.55C947.832 2517.55 946.274 2518 945.069 2518.89C943.886 2519.78 943.242 2520.93 943.138 2522.32H935.567C935.754 2519.06 937.114 2516.43 939.648 2514.44C942.182 2512.44 945.599 2511.45 949.899 2511.45C954.177 2511.45 957.521 2512.44 959.931 2514.44C962.34 2516.43 963.545 2519.14 963.545 2522.57V2545H955.818V2540.36H955.694C954.904 2541.81 953.762 2543.04 952.266 2544.03C950.771 2545.03 948.684 2545.53 946.004 2545.53ZM947.936 2539.7C950.511 2539.7 952.464 2539.04 953.793 2537.71C955.122 2536.36 955.787 2534.73 955.787 2532.82V2529.27C955.309 2529.58 954.385 2529.87 953.014 2530.14C951.643 2530.39 950.148 2530.64 948.528 2530.89C946.845 2531.14 945.381 2531.61 944.135 2532.32C942.909 2533.01 942.297 2534.1 942.297 2535.59C942.297 2536.88 942.806 2537.89 943.823 2538.61C944.841 2539.34 946.212 2539.7 947.936 2539.7ZM978.344 2526.4V2545H970.492V2512.1H978.219V2517.15C980.504 2513.35 983.869 2511.45 988.313 2511.45C991.761 2511.45 994.576 2512.56 996.757 2514.78C998.958 2517 1000.06 2520.22 1000.06 2524.44V2545H992.177V2525.68C992.177 2523.27 991.595 2521.45 990.432 2520.2C989.269 2518.95 987.638 2518.33 985.541 2518.33C983.484 2518.33 981.771 2518.97 980.4 2520.26C979.029 2521.55 978.344 2523.6 978.344 2526.4ZM1019.78 2545.65C1016.91 2545.65 1014.41 2544.94 1012.27 2543.5C1010.13 2542.07 1008.47 2540.08 1007.29 2537.52C1006.12 2534.95 1005.54 2531.95 1005.54 2528.52C1005.54 2525.15 1006.13 2522.19 1007.32 2519.64C1008.5 2517.06 1010.16 2515.06 1012.3 2513.63C1014.44 2512.17 1016.91 2511.45 1019.72 2511.45C1021.86 2511.45 1023.78 2511.88 1025.48 2512.75C1027.19 2513.63 1028.57 2514.97 1029.63 2516.77H1029.69V2498.58H1037.54V2545H1029.81V2539.98H1029.75C1028.71 2541.89 1027.32 2543.32 1025.58 2544.25C1023.85 2545.19 1021.92 2545.65 1019.78 2545.65ZM1021.62 2539.08C1024.19 2539.08 1026.25 2538.13 1027.79 2536.21C1029.35 2534.28 1030.12 2531.72 1030.12 2528.52C1030.12 2525.32 1029.35 2522.77 1027.79 2520.85C1026.25 2518.92 1024.19 2517.96 1021.62 2517.96C1019.19 2517.96 1017.23 2518.87 1015.73 2520.7C1014.23 2522.53 1013.49 2525.13 1013.49 2528.52C1013.49 2531.93 1014.23 2534.54 1015.73 2536.37C1017.23 2538.18 1019.19 2539.08 1021.62 2539.08ZM1077.95 2545.75C1074.15 2545.75 1070.83 2545.04 1068.01 2543.63C1065.21 2542.2 1063.02 2540.22 1061.47 2537.71C1059.93 2535.18 1059.16 2532.26 1059.16 2528.95V2498.58H1067.29V2528.3C1067.29 2531.25 1068.25 2533.68 1070.16 2535.59C1072.09 2537.5 1074.69 2538.46 1077.95 2538.46C1081.21 2538.46 1083.79 2537.5 1085.71 2535.59C1087.62 2533.68 1088.57 2531.25 1088.57 2528.3V2498.58H1096.7V2528.95C1096.7 2532.26 1095.92 2535.18 1094.37 2537.71C1092.83 2540.22 1090.65 2542.2 1087.82 2543.63C1085.02 2545.04 1081.73 2545.75 1077.95 2545.75ZM1112.5 2498.58V2545H1104.27V2498.58H1112.5ZM1134.68 2545V2498.58H1142.91V2520.98C1144.11 2519.57 1145.32 2518.16 1146.52 2516.77C1147.75 2515.38 1148.96 2513.98 1150.17 2512.57L1162.5 2498.58H1172.66L1154.81 2518.67L1172.97 2545H1163.38L1149.26 2524.22L1142.91 2531.42V2545H1134.68ZM1176.99 2545V2512.1H1184.84V2545H1176.99ZM1180.92 2507.21C1179.57 2507.21 1178.45 2506.78 1177.55 2505.93C1176.66 2505.06 1176.21 2503.99 1176.21 2502.72C1176.21 2501.45 1176.66 2500.4 1177.55 2499.54C1178.45 2498.69 1179.57 2498.27 1180.92 2498.27C1182.25 2498.27 1183.36 2498.69 1184.25 2499.54C1185.14 2500.4 1185.59 2501.45 1185.59 2502.72C1185.59 2503.99 1185.14 2505.06 1184.25 2505.93C1183.36 2506.78 1182.25 2507.21 1180.92 2507.21ZM1209.67 2512.1V2518.42H1202.97V2535.56C1202.97 2536.74 1203.21 2537.56 1203.69 2538.02C1204.17 2538.46 1205.04 2538.68 1206.31 2538.68H1209.67V2545H1204.94C1201.59 2545 1199.11 2544.32 1197.49 2542.97C1195.89 2541.62 1195.09 2539.54 1195.09 2536.71V2518.42H1189.36V2512.1H1195.09V2503.13H1202.97V2512.1H1209.67ZM1226.96 2545.78C1222.96 2545.78 1219.6 2544.84 1216.9 2542.97C1214.22 2541.08 1212.76 2538.37 1212.51 2534.84H1220.27C1220.43 2536.44 1221.08 2537.69 1222.2 2538.58C1223.32 2539.45 1224.87 2539.89 1226.84 2539.89C1228.73 2539.89 1230.22 2539.52 1231.3 2538.77C1232.4 2538.02 1232.95 2537.07 1232.95 2535.9C1232.95 2534.91 1232.54 2534.11 1231.73 2533.5C1230.92 2532.9 1229.83 2532.45 1228.46 2532.16L1222.85 2531.01C1216.45 2529.68 1213.26 2526.51 1213.26 2521.51C1213.26 2518.48 1214.46 2516.04 1216.87 2514.19C1219.28 2512.32 1222.49 2511.38 1226.5 2511.38C1230.49 2511.38 1233.73 2512.37 1236.22 2514.34C1238.73 2516.3 1240.03 2518.96 1240.11 2522.35H1232.73C1232.69 2520.88 1232.12 2519.66 1231.01 2518.7C1229.91 2517.75 1228.47 2517.27 1226.68 2517.27C1224.96 2517.27 1223.6 2517.66 1222.6 2518.42C1221.61 2519.19 1221.11 2520.14 1221.11 2521.26C1221.11 2522.24 1221.49 2523.04 1222.26 2523.66C1223.03 2524.26 1224.1 2524.72 1225.47 2525.03L1231.39 2526.24C1234.65 2526.93 1237.05 2528.01 1238.59 2529.48C1240.14 2530.96 1240.92 2532.9 1240.92 2535.31C1240.92 2537.45 1240.32 2539.31 1239.12 2540.89C1237.93 2542.45 1236.29 2543.65 1234.19 2544.5C1232.09 2545.35 1229.69 2545.78 1226.96 2545.78ZM141.039 2622.75C137.84 2622.75 135.026 2622.02 132.596 2620.57C130.187 2619.11 128.307 2617.1 126.957 2614.52C125.627 2611.95 124.963 2608.97 124.963 2605.58C124.963 2602.2 125.627 2599.21 126.957 2596.64C128.307 2594.04 130.187 2592.02 132.596 2590.56C135.026 2589.09 137.84 2588.35 141.039 2588.35C143.802 2588.35 146.263 2588.89 148.423 2589.97C150.583 2591.03 152.317 2592.51 153.626 2594.4C154.955 2596.27 155.734 2598.43 155.963 2600.88H148.267C147.976 2599.11 147.218 2597.68 145.993 2596.58C144.788 2595.46 143.168 2594.89 141.133 2594.89C138.557 2594.89 136.542 2595.86 135.088 2597.79C133.634 2599.72 132.907 2602.32 132.907 2605.58C132.907 2608.82 133.634 2611.41 135.088 2613.34C136.542 2615.25 138.557 2616.21 141.133 2616.21C143.189 2616.21 144.788 2615.67 145.93 2614.58C147.073 2613.48 147.831 2612.02 148.205 2610.19H155.963C155.776 2612.6 155.017 2614.75 153.688 2616.64C152.38 2618.53 150.635 2620.03 148.454 2621.13C146.294 2622.21 143.822 2622.75 141.039 2622.75ZM161.259 2622V2589.1H168.83V2594.55H168.923C169.526 2592.68 170.471 2591.26 171.758 2590.28C173.067 2589.29 174.78 2588.79 176.899 2588.79C177.439 2588.79 177.917 2588.81 178.332 2588.85C178.768 2588.87 179.142 2588.89 179.454 2588.91V2595.89C179.163 2595.85 178.665 2595.8 177.958 2595.74C177.252 2595.67 176.515 2595.64 175.746 2595.64C173.877 2595.64 172.298 2596.29 171.011 2597.57C169.744 2598.86 169.11 2600.79 169.11 2603.37V2622H161.259ZM193.411 2622.53C190.13 2622.53 187.409 2621.71 185.249 2620.07C183.109 2618.41 182.04 2615.94 182.04 2612.65C182.04 2610.16 182.642 2608.24 183.847 2606.89C185.072 2605.52 186.661 2604.52 188.614 2603.9C190.587 2603.28 192.705 2602.85 194.969 2602.62C198.022 2602.27 200.151 2601.96 201.356 2601.69C202.561 2601.42 203.163 2600.72 203.163 2599.6V2599.35C203.163 2597.94 202.623 2596.78 201.543 2595.89C200.484 2595 199.019 2594.55 197.15 2594.55C195.239 2594.55 193.681 2595 192.477 2595.89C191.293 2596.78 190.649 2597.93 190.545 2599.32H182.974C183.161 2596.06 184.522 2593.43 187.056 2591.44C189.59 2589.44 193.006 2588.45 197.306 2588.45C201.585 2588.45 204.929 2589.44 207.338 2591.44C209.747 2593.43 210.952 2596.14 210.952 2599.57V2622H203.225V2617.36H203.101C202.312 2618.81 201.169 2620.04 199.674 2621.03C198.178 2622.03 196.091 2622.53 193.411 2622.53ZM195.343 2616.7C197.919 2616.7 199.871 2616.04 201.2 2614.71C202.53 2613.36 203.194 2611.73 203.194 2609.82V2606.27C202.717 2606.58 201.792 2606.87 200.421 2607.14C199.051 2607.39 197.555 2607.64 195.935 2607.89C194.253 2608.14 192.788 2608.61 191.542 2609.32C190.317 2610.01 189.704 2611.1 189.704 2612.59C189.704 2613.88 190.213 2614.89 191.231 2615.61C192.248 2616.34 193.619 2616.7 195.343 2616.7ZM235.44 2589.1V2595.42H228.742V2622H220.859V2595.42H214.94V2589.1H220.859V2584.3C220.859 2581.48 221.711 2579.32 223.414 2577.82C225.138 2576.33 227.62 2575.58 230.86 2575.58H235.44V2581.9H232.418C231.068 2581.9 230.113 2582.18 229.552 2582.74C229.012 2583.3 228.742 2584.26 228.742 2585.61V2589.1H235.44ZM255.006 2589.1V2595.42H248.307V2612.56C248.307 2613.74 248.546 2614.56 249.024 2615.02C249.502 2615.46 250.374 2615.68 251.641 2615.68H255.006V2622H250.27C246.926 2622 244.444 2621.32 242.824 2619.97C241.225 2618.62 240.425 2616.54 240.425 2613.71V2595.42H234.693V2589.1H240.425V2580.13H248.307V2589.1H255.006ZM273.98 2622.75C270.698 2622.75 267.852 2622.01 265.443 2620.54C263.034 2619.06 261.175 2617.04 259.866 2614.46C258.578 2611.86 257.935 2608.9 257.935 2605.58C257.935 2602.24 258.599 2599.28 259.928 2596.7C261.279 2594.11 263.138 2592.07 265.505 2590.6C267.873 2589.1 270.594 2588.35 273.668 2588.35C276.825 2588.35 279.588 2589.08 281.955 2590.53C284.323 2591.99 286.161 2594 287.47 2596.58C288.779 2599.13 289.433 2602.09 289.433 2605.46V2607.61H265.63C265.734 2610.29 266.523 2612.45 267.998 2614.09C269.472 2615.73 271.529 2616.55 274.167 2616.55C276.14 2616.55 277.77 2616.12 279.058 2615.27C280.346 2614.4 281.218 2613.26 281.675 2611.84H289.028C288.612 2613.98 287.698 2615.87 286.286 2617.51C284.894 2619.15 283.139 2620.44 281.021 2621.38C278.902 2622.29 276.555 2622.75 273.98 2622.75ZM265.692 2602.19H281.893C281.644 2599.84 280.792 2597.99 279.338 2596.64C277.905 2595.27 276.057 2594.58 273.793 2594.58C271.508 2594.58 269.649 2595.27 268.216 2596.64C266.803 2597.99 265.962 2599.84 265.692 2602.19ZM307.503 2622.65C304.637 2622.65 302.134 2621.94 299.994 2620.5C297.855 2619.07 296.194 2617.08 295.01 2614.52C293.846 2611.95 293.265 2608.95 293.265 2605.52C293.265 2602.15 293.857 2599.19 295.041 2596.64C296.225 2594.06 297.886 2592.06 300.026 2590.63C302.165 2589.17 304.637 2588.45 307.441 2588.45C309.58 2588.45 311.501 2588.88 313.204 2589.75C314.908 2590.63 316.289 2591.97 317.348 2593.77H317.41V2575.58H325.262V2622H317.535V2616.98H317.473C316.434 2618.89 315.043 2620.32 313.298 2621.25C311.574 2622.19 309.642 2622.65 307.503 2622.65ZM309.341 2616.08C311.917 2616.08 313.973 2615.13 315.51 2613.21C317.068 2611.28 317.847 2608.72 317.847 2605.52C317.847 2602.32 317.068 2599.77 315.51 2597.85C313.973 2595.92 311.917 2594.96 309.341 2594.96C306.911 2594.96 304.948 2595.87 303.453 2597.7C301.957 2599.53 301.21 2602.13 301.21 2605.52C301.21 2608.93 301.957 2611.54 303.453 2613.37C304.948 2615.18 306.911 2616.08 309.341 2616.08ZM353.925 2622L343.768 2589.1H352.024L355.42 2601.59C355.939 2603.55 356.438 2605.56 356.916 2607.64C357.393 2609.71 357.881 2611.77 358.38 2613.81C358.878 2611.77 359.387 2609.71 359.907 2607.64C360.426 2605.56 360.955 2603.55 361.495 2601.59L364.985 2589.1H372.244L375.702 2601.59C376.222 2603.55 376.731 2605.55 377.229 2607.61C377.748 2609.66 378.268 2611.71 378.787 2613.74C379.265 2611.71 379.742 2609.66 380.22 2607.61C380.698 2605.55 381.196 2603.55 381.715 2601.59L385.111 2589.1H393.461L383.273 2622H375.11L371.123 2608.29C370.686 2606.78 370.261 2605.22 369.845 2603.62C369.43 2602.02 369.014 2600.42 368.599 2598.82C368.204 2600.42 367.799 2602.02 367.384 2603.62C366.968 2605.22 366.532 2606.78 366.075 2608.29L362.025 2622H353.925ZM397.542 2622V2589.1H405.394V2622H397.542ZM401.468 2584.21C400.118 2584.21 398.996 2583.78 398.103 2582.93C397.21 2582.06 396.764 2580.99 396.764 2579.72C396.764 2578.45 397.21 2577.4 398.103 2576.54C398.996 2575.69 400.118 2575.27 401.468 2575.27C402.797 2575.27 403.909 2575.69 404.802 2576.54C405.695 2577.4 406.141 2578.45 406.141 2579.72C406.141 2580.99 405.695 2582.06 404.802 2582.93C403.909 2583.78 402.797 2584.21 401.468 2584.21ZM430.225 2589.1V2595.42H423.526V2612.56C423.526 2613.74 423.765 2614.56 424.243 2615.02C424.72 2615.46 425.593 2615.68 426.86 2615.68H430.225V2622H425.489C422.145 2622 419.663 2621.32 418.043 2619.97C416.443 2618.62 415.644 2616.54 415.644 2613.71V2595.42H409.911V2589.1H415.644V2580.13H423.526V2589.1H430.225ZM443.029 2603.4V2622H435.178V2575.58H443.029V2593.93C445.314 2590.27 448.637 2588.45 452.999 2588.45C456.447 2588.45 459.262 2589.56 461.442 2591.78C463.644 2594 464.745 2597.22 464.745 2601.44V2622H456.863V2602.68C456.863 2600.27 456.281 2598.45 455.118 2597.2C453.955 2595.95 452.324 2595.33 450.226 2595.33C448.17 2595.33 446.457 2595.97 445.086 2597.26C443.715 2598.55 443.029 2600.6 443.029 2603.4ZM483.127 2622L499.701 2575.58H510.045L526.557 2622H517.491L513.784 2610.91H495.776L491.975 2622H483.127ZM498.081 2604.15H511.54L509.36 2597.61C508.674 2595.47 507.968 2593.23 507.241 2590.91C506.535 2588.58 505.746 2585.95 504.873 2583.02C504.001 2585.95 503.201 2588.58 502.474 2590.91C501.747 2593.23 501.031 2595.47 500.324 2597.61L498.081 2604.15ZM542.852 2622.78C538.843 2622.78 535.489 2621.84 532.789 2619.97C530.109 2618.08 528.645 2615.37 528.396 2611.84H536.153C536.319 2613.44 536.963 2614.69 538.085 2615.58C539.207 2616.45 540.754 2616.89 542.727 2616.89C544.617 2616.89 546.102 2616.52 547.182 2615.77C548.283 2615.02 548.834 2614.07 548.834 2612.9C548.834 2611.91 548.429 2611.11 547.619 2610.5C546.809 2609.9 545.718 2609.45 544.347 2609.16L538.739 2608.01C532.342 2606.68 529.143 2603.51 529.143 2598.51C529.143 2595.48 530.348 2593.04 532.757 2591.19C535.167 2589.32 538.376 2588.38 542.384 2588.38C546.372 2588.38 549.613 2589.37 552.105 2591.34C554.618 2593.3 555.916 2595.96 555.999 2599.35H548.616C548.574 2597.88 548.003 2596.66 546.902 2595.7C545.801 2594.75 544.358 2594.27 542.571 2594.27C540.847 2594.27 539.487 2594.66 538.49 2595.42C537.493 2596.19 536.995 2597.14 536.995 2598.26C536.995 2599.24 537.379 2600.04 538.147 2600.66C538.916 2601.26 539.985 2601.72 541.356 2602.03L547.276 2603.24C550.537 2603.93 552.936 2605.01 554.473 2606.48C556.031 2607.96 556.809 2609.9 556.809 2612.31C556.809 2614.45 556.207 2616.31 555.002 2617.89C553.819 2619.45 552.178 2620.65 550.08 2621.5C547.982 2622.35 545.573 2622.78 542.852 2622.78ZM580.145 2589.1V2595.42H573.446V2612.56C573.446 2613.74 573.685 2614.56 574.163 2615.02C574.641 2615.46 575.513 2615.68 576.78 2615.68H580.145V2622H575.409C572.065 2622 569.583 2621.32 567.963 2619.97C566.364 2618.62 565.564 2616.54 565.564 2613.71V2595.42H559.832V2589.1H565.564V2580.13H573.446V2589.1H580.145ZM585.099 2622V2589.1H592.669V2594.55H592.763C593.365 2592.68 594.31 2591.26 595.598 2590.28C596.907 2589.29 598.62 2588.79 600.739 2588.79C601.279 2588.79 601.756 2588.81 602.172 2588.85C602.608 2588.87 602.982 2588.89 603.293 2588.91V2595.89C603.003 2595.85 602.504 2595.8 601.798 2595.74C601.092 2595.67 600.354 2595.64 599.586 2595.64C597.717 2595.64 596.138 2596.29 594.85 2597.57C593.583 2598.86 592.95 2600.79 592.95 2603.37V2622H585.099ZM622.111 2622.75C618.871 2622.75 616.036 2622.03 613.606 2620.6C611.176 2619.14 609.275 2617.13 607.904 2614.55C606.554 2611.98 605.879 2608.99 605.879 2605.58C605.879 2602.17 606.554 2599.18 607.904 2596.61C609.275 2594.01 611.176 2591.99 613.606 2590.53C616.036 2589.08 618.871 2588.35 622.111 2588.35C625.331 2588.35 628.156 2589.08 630.586 2590.53C633.037 2591.99 634.937 2594.01 636.287 2596.61C637.658 2599.18 638.343 2602.17 638.343 2605.58C638.343 2608.99 637.658 2611.98 636.287 2614.55C634.937 2617.13 633.037 2619.14 630.586 2620.6C628.156 2622.03 625.331 2622.75 622.111 2622.75ZM622.111 2616.17C624.625 2616.17 626.629 2615.23 628.124 2613.34C629.62 2611.45 630.368 2608.86 630.368 2605.58C630.368 2602.3 629.62 2599.7 628.124 2597.79C626.629 2595.88 624.625 2594.93 622.111 2594.93C619.577 2594.93 617.563 2595.88 616.067 2597.79C614.572 2599.68 613.824 2602.28 613.824 2605.58C613.824 2608.86 614.572 2611.45 616.067 2613.34C617.563 2615.23 619.577 2616.17 622.111 2616.17ZM668.284 2622.53C665.002 2622.53 662.281 2621.71 660.121 2620.07C657.982 2618.41 656.912 2615.94 656.912 2612.65C656.912 2610.16 657.514 2608.24 658.719 2606.89C659.945 2605.52 661.534 2604.52 663.486 2603.9C665.459 2603.28 667.578 2602.85 669.842 2602.62C672.895 2602.27 675.024 2601.96 676.229 2601.69C677.433 2601.42 678.036 2600.72 678.036 2599.6V2599.35C678.036 2597.94 677.496 2596.78 676.415 2595.89C675.356 2595 673.892 2594.55 672.023 2594.55C670.112 2594.55 668.554 2595 667.349 2595.89C666.165 2596.78 665.521 2597.93 665.418 2599.32H657.847C658.034 2596.06 659.394 2593.43 661.928 2591.44C664.462 2589.44 667.879 2588.45 672.178 2588.45C676.457 2588.45 679.801 2589.44 682.21 2591.44C684.62 2593.43 685.824 2596.14 685.824 2599.57V2622H678.098V2617.36H677.973C677.184 2618.81 676.042 2620.04 674.546 2621.03C673.051 2622.03 670.963 2622.53 668.284 2622.53ZM670.216 2616.7C672.791 2616.7 674.743 2616.04 676.073 2614.71C677.402 2613.36 678.067 2611.73 678.067 2609.82V2606.27C677.589 2606.58 676.665 2606.87 675.294 2607.14C673.923 2607.39 672.428 2607.64 670.807 2607.89C669.125 2608.14 667.661 2608.61 666.415 2609.32C665.189 2610.01 664.576 2611.1 664.576 2612.59C664.576 2613.88 665.085 2614.89 666.103 2615.61C667.121 2616.34 668.492 2616.7 670.216 2616.7ZM700.623 2603.4V2622H692.772V2589.1H700.499V2594.15C702.783 2590.35 706.148 2588.45 710.593 2588.45C714.041 2588.45 716.855 2589.56 719.036 2591.78C721.238 2594 722.339 2597.22 722.339 2601.44V2622H714.456V2602.68C714.456 2600.27 713.875 2598.45 712.712 2597.2C711.548 2595.95 709.918 2595.33 707.82 2595.33C705.764 2595.33 704.05 2595.97 702.68 2597.26C701.309 2598.55 700.623 2600.6 700.623 2603.4ZM742.06 2622.65C739.194 2622.65 736.691 2621.94 734.552 2620.5C732.412 2619.07 730.751 2617.08 729.567 2614.52C728.404 2611.95 727.822 2608.95 727.822 2605.52C727.822 2602.15 728.414 2599.19 729.598 2596.64C730.782 2594.06 732.443 2592.06 734.583 2590.63C736.722 2589.17 739.194 2588.45 741.998 2588.45C744.137 2588.45 746.058 2588.88 747.762 2589.75C749.465 2590.63 750.846 2591.97 751.905 2593.77H751.968V2575.58H759.819V2622H752.092V2616.98H752.03C750.991 2618.89 749.6 2620.32 747.855 2621.25C746.131 2622.19 744.199 2622.65 742.06 2622.65ZM743.898 2616.08C746.474 2616.08 748.53 2615.13 750.067 2613.21C751.625 2611.28 752.404 2608.72 752.404 2605.52C752.404 2602.32 751.625 2599.77 750.067 2597.85C748.53 2595.92 746.474 2594.96 743.898 2594.96C741.468 2594.96 739.505 2595.87 738.01 2597.7C736.514 2599.53 735.767 2602.13 735.767 2605.52C735.767 2608.93 736.514 2611.54 738.01 2613.37C739.505 2615.18 741.468 2616.08 743.898 2616.08ZM779.197 2582.71V2575.58H816.304V2582.71H801.91V2622H793.654V2582.71H779.197ZM824.311 2622.53C821.029 2622.53 818.308 2621.71 816.148 2620.07C814.009 2618.41 812.939 2615.94 812.939 2612.65C812.939 2610.16 813.541 2608.24 814.746 2606.89C815.971 2605.52 817.56 2604.52 819.513 2603.9C821.486 2603.28 823.604 2602.85 825.868 2602.62C828.922 2602.27 831.051 2601.96 832.255 2601.69C833.46 2601.42 834.062 2600.72 834.062 2599.6V2599.35C834.062 2597.94 833.522 2596.78 832.442 2595.89C831.383 2595 829.919 2594.55 828.049 2594.55C826.138 2594.55 824.581 2595 823.376 2595.89C822.192 2596.78 821.548 2597.93 821.444 2599.32H813.874C814.061 2596.06 815.421 2593.43 817.955 2591.44C820.489 2589.44 823.906 2588.45 828.205 2588.45C832.484 2588.45 835.828 2589.44 838.237 2591.44C840.647 2593.43 841.851 2596.14 841.851 2599.57V2622H834.125V2617.36H834C833.211 2618.81 832.068 2620.04 830.573 2621.03C829.077 2622.03 826.99 2622.53 824.311 2622.53ZM826.242 2616.7C828.818 2616.7 830.77 2616.04 832.1 2614.71C833.429 2613.36 834.094 2611.73 834.094 2609.82V2606.27C833.616 2606.58 832.692 2606.87 831.321 2607.14C829.95 2607.39 828.454 2607.64 826.834 2607.89C825.152 2608.14 823.688 2608.61 822.441 2609.32C821.216 2610.01 820.603 2611.1 820.603 2612.59C820.603 2613.88 821.112 2614.89 822.13 2615.61C823.148 2616.34 824.518 2616.7 826.242 2616.7ZM848.799 2622V2589.1H856.65V2622H848.799ZM852.725 2584.21C851.374 2584.21 850.253 2583.78 849.36 2582.93C848.467 2582.06 848.02 2580.99 848.02 2579.72C848.02 2578.45 848.467 2577.4 849.36 2576.54C850.253 2575.69 851.374 2575.27 852.725 2575.27C854.054 2575.27 855.165 2575.69 856.058 2576.54C856.951 2577.4 857.398 2578.45 857.398 2579.72C857.398 2580.99 856.951 2582.06 856.058 2582.93C855.165 2583.78 854.054 2584.21 852.725 2584.21ZM871.48 2575.58V2622H863.629V2575.58H871.48ZM885.687 2622L875.53 2589.1H883.787L887.183 2601.59C887.702 2603.55 888.2 2605.56 888.678 2607.64C889.156 2609.71 889.644 2611.77 890.142 2613.81C890.641 2611.77 891.15 2609.71 891.669 2607.64C892.188 2605.56 892.718 2603.55 893.258 2601.59L896.747 2589.1H904.006L907.465 2601.59C907.984 2603.55 908.493 2605.55 908.991 2607.61C909.511 2609.66 910.03 2611.71 910.549 2613.74C911.027 2611.71 911.505 2609.66 911.982 2607.61C912.46 2605.55 912.959 2603.55 913.478 2601.59L916.874 2589.1H925.223L915.036 2622H906.873L902.885 2608.29C902.449 2606.78 902.023 2605.22 901.608 2603.62C901.192 2602.02 900.777 2600.42 900.361 2598.82C899.967 2600.42 899.562 2602.02 899.146 2603.62C898.731 2605.22 898.295 2606.78 897.838 2608.29L893.787 2622H885.687ZM929.305 2622V2589.1H937.156V2622H929.305ZM933.23 2584.21C931.88 2584.21 930.759 2583.78 929.866 2582.93C928.972 2582.06 928.526 2580.99 928.526 2579.72C928.526 2578.45 928.972 2577.4 929.866 2576.54C930.759 2575.69 931.88 2575.27 933.23 2575.27C934.56 2575.27 935.671 2575.69 936.564 2576.54C937.457 2577.4 937.904 2578.45 937.904 2579.72C937.904 2580.99 937.457 2582.06 936.564 2582.93C935.671 2583.78 934.56 2584.21 933.23 2584.21ZM951.986 2603.4V2622H944.135V2589.1H951.861V2594.15C954.146 2590.35 957.511 2588.45 961.956 2588.45C965.404 2588.45 968.218 2589.56 970.399 2591.78C972.601 2594 973.701 2597.22 973.701 2601.44V2622H965.819V2602.68C965.819 2600.27 965.237 2598.45 964.074 2597.2C962.911 2595.95 961.281 2595.33 959.183 2595.33C957.127 2595.33 955.413 2595.97 954.042 2597.26C952.671 2598.55 951.986 2600.6 951.986 2603.4ZM993.423 2622.65C990.557 2622.65 988.054 2621.94 985.914 2620.5C983.775 2619.07 982.113 2617.08 980.929 2614.52C979.766 2611.95 979.185 2608.95 979.185 2605.52C979.185 2602.15 979.777 2599.19 980.961 2596.64C982.145 2594.06 983.806 2592.06 985.946 2590.63C988.085 2589.17 990.557 2588.45 993.361 2588.45C995.5 2588.45 997.421 2588.88 999.124 2589.75C1000.83 2590.63 1002.21 2591.97 1003.27 2593.77H1003.33V2575.58H1011.18V2622H1003.45V2616.98H1003.39C1002.35 2618.89 1000.96 2620.32 999.218 2621.25C997.494 2622.19 995.562 2622.65 993.423 2622.65ZM995.261 2616.08C997.837 2616.08 999.893 2615.13 1001.43 2613.21C1002.99 2611.28 1003.77 2608.72 1003.77 2605.52C1003.77 2602.32 1002.99 2599.77 1001.43 2597.85C999.893 2595.92 997.837 2594.96 995.261 2594.96C992.831 2594.96 990.868 2595.87 989.373 2597.7C987.877 2599.53 987.129 2602.13 987.129 2605.52C987.129 2608.93 987.877 2611.54 989.373 2613.37C990.868 2615.18 992.831 2616.08 995.261 2616.08ZM1053.24 2622.75C1048.96 2622.75 1045.18 2621.76 1041.9 2619.79C1038.62 2617.81 1036.04 2615.03 1034.17 2611.44C1032.3 2607.85 1031.37 2603.64 1031.37 2598.82C1031.37 2593.96 1032.3 2589.73 1034.17 2586.14C1036.04 2582.55 1038.62 2579.76 1041.9 2577.79C1045.18 2575.82 1048.96 2574.83 1053.24 2574.83C1056.73 2574.83 1059.89 2575.52 1062.71 2576.89C1065.54 2578.26 1067.86 2580.19 1069.69 2582.68C1071.54 2585.17 1072.72 2588.11 1073.24 2591.5H1064.86C1064.24 2588.55 1062.9 2586.26 1060.84 2584.64C1058.79 2583.02 1056.27 2582.21 1053.3 2582.21C1050.48 2582.21 1048.04 2582.9 1045.98 2584.27C1043.95 2585.64 1042.38 2587.57 1041.28 2590.07C1040.2 2592.56 1039.66 2595.48 1039.66 2598.82C1039.66 2602.14 1040.2 2605.05 1041.28 2607.54C1042.38 2610.02 1043.95 2611.94 1045.98 2613.31C1048.02 2614.68 1050.46 2615.36 1053.3 2615.36C1056.25 2615.36 1058.76 2614.56 1060.81 2612.96C1062.87 2611.37 1064.23 2609.09 1064.89 2606.14H1073.24C1072.72 2609.53 1071.54 2612.47 1069.69 2614.96C1067.86 2617.43 1065.54 2619.35 1062.71 2620.72C1059.89 2622.07 1056.73 2622.75 1053.24 2622.75ZM1096.02 2622.75C1090.26 2622.75 1085.76 2621.35 1082.5 2618.54C1079.26 2615.72 1077.64 2611.82 1077.64 2606.86H1085.71C1085.75 2609.66 1086.67 2611.85 1088.48 2613.43C1090.31 2615.01 1092.84 2615.8 1096.08 2615.8C1098.97 2615.8 1101.29 2615.2 1103.06 2613.99C1104.82 2612.77 1105.71 2611.14 1105.71 2609.1C1105.71 2607.46 1105.04 2606.13 1103.71 2605.11C1102.38 2604.08 1100.17 2603.2 1097.08 2602.5L1092.09 2601.38C1087.46 2600.32 1084.04 2598.75 1081.84 2596.67C1079.64 2594.59 1078.54 2591.92 1078.54 2588.66C1078.54 2585.9 1079.25 2583.48 1080.66 2581.4C1082.09 2579.33 1084.09 2577.72 1086.64 2576.58C1089.22 2575.41 1092.21 2574.83 1095.61 2574.83C1100.81 2574.83 1104.92 2576.15 1107.95 2578.79C1111 2581.43 1112.59 2585.05 1112.72 2589.66H1104.9C1104.73 2587.21 1103.82 2585.29 1102.16 2583.9C1100.49 2582.51 1098.3 2581.81 1095.58 2581.81C1093.01 2581.81 1090.9 2582.41 1089.26 2583.62C1087.62 2584.82 1086.8 2586.37 1086.8 2588.26C1086.8 2589.82 1087.44 2591.08 1088.73 2592.06C1090.04 2593.01 1092.21 2593.84 1095.24 2594.52L1099.94 2595.61C1104.76 2596.67 1108.29 2598.25 1110.54 2600.35C1112.78 2602.44 1113.9 2605.2 1113.9 2608.6C1113.9 2611.49 1113.17 2613.99 1111.72 2616.11C1110.27 2618.23 1108.2 2619.87 1105.52 2621.03C1102.84 2622.18 1099.67 2622.75 1096.02 2622.75ZM1136.83 2622.75C1131.08 2622.75 1126.57 2621.35 1123.31 2618.54C1120.07 2615.72 1118.45 2611.82 1118.45 2606.86H1126.52C1126.56 2609.66 1127.49 2611.85 1129.29 2613.43C1131.12 2615.01 1133.65 2615.8 1136.89 2615.8C1139.78 2615.8 1142.11 2615.2 1143.87 2613.99C1145.64 2612.77 1146.52 2611.14 1146.52 2609.1C1146.52 2607.46 1145.86 2606.13 1144.53 2605.11C1143.2 2604.08 1140.99 2603.2 1137.89 2602.5L1132.91 2601.38C1128.27 2600.32 1124.86 2598.75 1122.66 2596.67C1120.45 2594.59 1119.35 2591.92 1119.35 2588.66C1119.35 2585.9 1120.06 2583.48 1121.47 2581.4C1122.91 2579.33 1124.9 2577.72 1127.45 2576.58C1130.03 2575.41 1133.02 2574.83 1136.43 2574.83C1141.62 2574.83 1145.73 2576.15 1148.76 2578.79C1151.82 2581.43 1153.41 2585.05 1153.53 2589.66H1145.71C1145.54 2587.21 1144.63 2585.29 1142.97 2583.9C1141.31 2582.51 1139.12 2581.81 1136.4 2581.81C1133.82 2581.81 1131.71 2582.41 1130.07 2583.62C1128.43 2584.82 1127.61 2586.37 1127.61 2588.26C1127.61 2589.82 1128.25 2591.08 1129.54 2592.06C1130.85 2593.01 1133.02 2593.84 1136.05 2594.52L1140.76 2595.61C1145.58 2596.67 1149.11 2598.25 1151.35 2600.35C1153.59 2602.44 1154.71 2605.2 1154.71 2608.6C1154.71 2611.49 1153.99 2613.99 1152.53 2616.11C1151.08 2618.23 1149.01 2619.87 1146.33 2621.03C1143.65 2622.18 1140.49 2622.75 1136.83 2622.75Z" fill="#020202"/>
<g clip-path="url(#clip1_2466_3190)">
<path fill-rule="evenodd" clip-rule="evenodd" d="M391.589 2076.76L455.972 2141.38L361.368 2235.64L452.403 2309.87V2406.15H361.186V2235.82L192.972 2403.42L128.589 2338.81L300.04 2167.98H128.073V2076.76H391.589Z" fill="#020202"/>
</g>
</g>
<defs>
<clipPath id="clip0_2466_3190">
<rect width="1457" height="2788" fill="white"/>
</clipPath>
<clipPath id="clip1_2466_3190">
<rect width="339.632" height="333.342" fill="white" transform="translate(123 2073)"/>
</clipPath>
</defs>
</svg>
